<svg xmlns="http://www.w3.org/2000/svg" xmlns:xlink="http://www.w3.org/1999/xlink" width="500" zoomAndPan="magnify" viewBox="0 0 375 374.999991" height="500" preserveAspectRatio="xMidYMid meet" version="1.0"><defs><clipPath id="f34d092724"><path d="M 37.5 7.214844 L 360 7.214844 L 360 367.964844 L 37.5 367.964844 Z M 37.5 7.214844 " clip-rule="nonzero"/></clipPath></defs><path fill="#17181c" d="M 350.472656 92.65625 L 350.472656 282.523438 L 198.75 358.472656 L 198.75 168.605469 Z M 350.472656 92.65625 " fill-opacity="1" fill-rule="nonzero"/><path fill="#9ba5c9" d="M 47.027344 92.65625 L 198.75 168.605469 L 198.75 358.472656 L 47.027344 282.523438 Z M 47.027344 92.65625 " fill-opacity="1" fill-rule="nonzero"/><path fill="#fa4753" d="M 350.472656 92.65625 L 198.75 168.605469 L 47.027344 92.65625 L 198.75 16.710938 Z M 350.472656 92.65625 " fill-opacity="1" fill-rule="nonzero"/><g clip-path="url(#f34d092724)"><path fill="#ffffff" d="M 354.710938 84.164062 L 202.992188 8.214844 C 200.324219 6.882812 197.175781 6.882812 194.507812 8.214844 L 42.789062 84.164062 C 39.574219 85.777344 37.546875 89.058594 37.546875 92.65625 L 37.546875 282.523438 C 37.546875 286.121094 39.574219 289.402344 42.789062 291.019531 L 194.507812 366.964844 L 194.769531 367.027344 C 195.988281 367.59375 197.3125 367.964844 198.75 367.964844 C 200.1875 367.964844 201.511719 367.59375 202.730469 367.027344 L 202.992188 366.964844 L 354.710938 291.019531 C 357.914062 289.402344 359.953125 286.121094 359.953125 282.523438 L 359.953125 92.65625 C 359.953125 89.058594 357.917969 85.777344 354.710938 84.164062 Z M 189.265625 343.109375 L 56.511719 276.65625 L 56.511719 108.011719 L 189.265625 174.472656 Z M 198.75 157.988281 L 68.238281 92.65625 L 198.75 27.324219 L 329.265625 92.65625 Z M 340.988281 276.65625 L 208.234375 343.109375 L 208.234375 174.472656 L 340.988281 108.019531 Z M 340.988281 276.65625 " fill-opacity="1" fill-rule="nonzero"/></g></svg>