<svg xmlns="http://www.w3.org/2000/svg" xmlns:xlink="http://www.w3.org/1999/xlink" width="500" zoomAndPan="magnify" viewBox="0 0 375 374.999991" height="500" preserveAspectRatio="xMidYMid meet" version="1.0"><defs><clipPath id="e7a691759a"><path d="M 248 305 L 366 305 L 366 373.5 L 248 373.5 Z M 248 305 " clip-rule="nonzero"/></clipPath><clipPath id="bffdc09bec"><path d="M 0 305 L 118 305 L 118 373.5 L 0 373.5 Z M 0 305 " clip-rule="nonzero"/></clipPath></defs><path fill="#000000" d="M 130.261719 254.878906 C 121.71875 213.316406 148.585938 172.554688 190.152344 164.015625 L 172.25 150.039062 L 183.234375 130.359375 C 123.101562 142.714844 84.230469 201.671875 96.59375 261.796875 C 99.710938 276.941406 105.78125 290.734375 114.089844 302.703125 L 162 302.703125 C 146.207031 291.835938 134.417969 275.09375 130.261719 254.878906 " fill-opacity="1" fill-rule="nonzero"/><path fill="#000000" d="M 220.503906 129.089844 L 220.503906 111.507812 L 186.582031 145.421875 L 220.503906 179.335938 L 220.503906 163.898438 C 255.847656 170.847656 282.597656 202.054688 282.597656 239.398438 C 282.597656 281.824219 248.074219 316.335938 205.636719 316.335938 L 134.277344 316.335938 L 148.773438 333.515625 L 134.277344 350.695312 L 205.636719 350.695312 C 267.023438 350.695312 316.96875 300.769531 316.96875 239.398438 C 316.96875 183.058594 274.886719 136.375 220.503906 129.089844 " fill-opacity="1" fill-rule="nonzero"/><path fill="#000000" d="M 341.027344 367.433594 L 341.027344 350.695312 L 266.679688 352.492188 C 292.945312 348.648438 300.570312 328.585938 311.21875 316.335938 L 341.027344 316.335938 L 341.027344 299.597656 L 374.953125 333.515625 L 341.027344 367.433594 " fill-opacity="1" fill-rule="nonzero"/><path fill="#000000" d="M 125.984375 333.515625 L 92.058594 299.601562 L 92.058594 316.335938 L 8.972656 316.335938 L 8.972656 350.695312 L 92.058594 350.695312 L 92.058594 367.429688 L 125.984375 333.515625 " fill-opacity="1" fill-rule="nonzero"/><path fill="#fda4ff" d="M 121.296875 260.855469 C 112.753906 219.292969 139.621094 178.53125 181.1875 169.992188 L 163.285156 156.011719 L 174.265625 136.335938 C 114.132812 148.6875 75.265625 207.648438 87.628906 267.773438 C 90.746094 282.921875 96.816406 296.710938 105.121094 308.679688 L 153.035156 308.679688 C 137.242188 297.808594 125.453125 281.070312 121.296875 260.855469 " fill-opacity="1" fill-rule="nonzero"/><path fill="#8c7bff" d="M 211.539062 135.0625 L 211.539062 117.484375 L 177.617188 151.398438 L 211.539062 185.3125 L 211.539062 169.875 C 246.886719 176.820312 273.632812 208.03125 273.632812 245.371094 C 273.632812 287.800781 239.109375 322.308594 196.671875 322.308594 L 125.3125 322.308594 L 139.808594 339.492188 L 125.3125 356.671875 L 196.671875 356.671875 C 258.058594 356.671875 308.003906 306.746094 308.003906 245.371094 C 308.003906 189.035156 265.921875 142.351562 211.539062 135.0625 " fill-opacity="1" fill-rule="nonzero"/><g clip-path="url(#e7a691759a)"><path fill="#fda4ff" d="M 332.058594 373.40625 L 332.058594 356.671875 L 248.972656 356.671875 C 275.234375 352.828125 291.601562 334.5625 302.25 322.308594 L 332.058594 322.308594 L 332.058594 305.574219 L 365.984375 339.492188 L 332.058594 373.40625 " fill-opacity="1" fill-rule="nonzero"/></g><g clip-path="url(#bffdc09bec)"><path fill="#fed101" d="M 117.015625 339.492188 L 83.09375 305.578125 L 83.09375 322.308594 L 0.0078125 322.308594 L 0.0078125 356.671875 L 83.09375 356.671875 L 83.09375 373.40625 L 117.015625 339.492188 " fill-opacity="1" fill-rule="nonzero"/></g><path fill="#000000" d="M 164.59375 62.214844 C 164.59375 67.160156 160.582031 71.171875 155.636719 71.171875 C 150.691406 71.171875 146.683594 67.160156 146.683594 62.214844 C 146.683594 57.269531 150.691406 53.261719 155.636719 53.261719 C 160.582031 53.261719 164.59375 57.269531 164.59375 62.214844 " fill-opacity="1" fill-rule="nonzero"/><path fill="#000000" d="M 178.621094 64.75 C 178.621094 69.695312 174.613281 73.707031 169.664062 73.707031 C 164.71875 73.707031 160.710938 69.695312 160.710938 64.75 C 160.710938 59.804688 164.71875 55.796875 169.664062 55.796875 C 174.613281 55.796875 178.621094 59.804688 178.621094 64.75 " fill-opacity="1" fill-rule="nonzero"/><path fill="#000000" d="M 192.648438 67.285156 C 192.648438 72.230469 188.640625 76.238281 183.691406 76.238281 C 178.746094 76.238281 174.734375 72.230469 174.734375 67.285156 C 174.734375 62.339844 178.746094 58.328125 183.691406 58.328125 C 188.640625 58.328125 192.648438 62.339844 192.648438 67.285156 " fill-opacity="1" fill-rule="nonzero"/><path fill="#fda4ff" d="M 155.800781 73.871094 L 148.742188 73.871094 L 148.742188 64.753906 L 155.800781 64.753906 L 155.800781 73.871094 " fill-opacity="1" fill-rule="nonzero"/><path fill="#000000" d="M 155.800781 67.425781 L 155.800781 64.753906 L 148.742188 64.753906 L 148.742188 70.660156 C 149.378906 70.785156 150.648438 70.945312 152.105469 70.464844 C 154.386719 69.710938 155.507812 67.929688 155.800781 67.425781 " fill-opacity="1" fill-rule="nonzero"/><path fill="#fda4ff" d="M 156.988281 62.671875 C 156.988281 66.132812 154.449219 68.941406 151.3125 68.941406 C 148.179688 68.941406 145.640625 66.132812 145.640625 62.671875 C 145.640625 59.210938 148.179688 56.402344 151.3125 56.402344 C 154.449219 56.402344 156.988281 59.210938 156.988281 62.671875 " fill-opacity="1" fill-rule="nonzero"/><path fill="#000000" d="M 151.261719 56.285156 C 150.667969 56.285156 150.101562 56.382812 149.5625 56.5625 C 150.3125 60.421875 153.121094 63.542969 156.800781 64.738281 C 156.988281 64.105469 157.09375 63.429688 157.09375 62.730469 C 157.09375 59.167969 154.480469 56.285156 151.261719 56.285156 " fill-opacity="1" fill-rule="nonzero"/><path fill="#ffffff" d="M 153.78125 65.425781 C 153.234375 65.925781 152.527344 66.265625 151.730469 66.347656 C 149.949219 66.527344 148.351562 65.375 147.910156 63.699219 L 153.78125 65.425781 " fill-opacity="1" fill-rule="nonzero"/><path fill="#000000" d="M 60.398438 211.683594 L 35.917969 215.484375 L 29.738281 175.695312 L 54.222656 171.894531 L 60.398438 211.683594 " fill-opacity="1" fill-rule="nonzero"/><path fill="#4ada85" d="M 10.894531 230.074219 L 21.054688 221.113281 L 28.792969 205.042969 L 44.765625 207.09375 C 48.15625 207.527344 51.578125 206.527344 54.195312 204.324219 L 54.644531 203.945312 C 57.285156 201.722656 58.421875 198.183594 57.5625 194.839844 L 57.34375 193.996094 C 56.917969 192.335938 58.976562 191.195312 60.160156 192.433594 L 82.707031 216.058594 L 74.835938 223.613281 C 70.664062 227.621094 65.898438 230.964844 60.714844 233.527344 L 58.632812 234.558594 C 45.988281 240.808594 32.46875 245.101562 18.53125 247.285156 L 8.53125 248.851562 L 4.398438 245.410156 L 4.234375 245.085938 C 3.078125 242.742188 2.988281 240.011719 3.996094 237.601562 L 4.011719 237.566406 C 4.507812 236.375 5.253906 235.308594 6.199219 234.429688 L 10.894531 230.074219 " fill-opacity="1" fill-rule="nonzero"/><path fill="#ffffff" d="M 35.574219 205.914062 L 28.792969 205.042969 L 21.054688 221.113281 L 27.289062 218.027344 C 29.367188 217 31.042969 215.304688 32.050781 213.214844 L 35.574219 205.914062 " fill-opacity="1" fill-rule="nonzero"/><path fill="#000000" d="M 29.058594 205.53125 L 22.03125 220.125 L 27.085938 217.621094 C 29.066406 216.644531 30.6875 215.011719 31.644531 213.019531 L 34.894531 206.28125 Z M 21.054688 221.5625 C 20.9375 221.5625 20.820312 221.519531 20.734375 221.433594 C 20.597656 221.296875 20.5625 221.089844 20.644531 220.914062 L 28.386719 204.847656 C 28.46875 204.667969 28.65625 204.570312 28.851562 204.59375 L 35.628906 205.464844 C 35.773438 205.484375 35.902344 205.570312 35.96875 205.695312 C 36.039062 205.824219 36.042969 205.980469 35.980469 206.109375 L 32.460938 213.414062 C 31.414062 215.582031 29.648438 217.367188 27.488281 218.433594 L 21.253906 221.515625 C 21.191406 221.546875 21.121094 221.5625 21.054688 221.5625 " fill-opacity="1" fill-rule="nonzero"/><path fill="#ffffff" d="M 48.023438 220.96875 L 49.902344 224.765625 L 60.640625 210.804688 L 64.308594 217.617188 L 70.457031 203.226562 L 72.742188 202.734375 L 84.152344 214.828125 L 74.757812 223.753906 C 70.636719 227.667969 65.949219 230.941406 60.851562 233.460938 L 58.632812 234.558594 C 45.988281 240.808594 32.46875 245.101562 18.53125 247.285156 L 8.53125 248.851562 L 4.398438 245.410156 L 9.300781 244.039062 C 27.25 238.804688 36.617188 227.789062 36.617188 227.789062 L 38.039062 230.867188 L 48.023438 220.96875 " fill-opacity="1" fill-rule="nonzero"/><path fill="#000000" d="M 5.347656 245.613281 L 8.664062 248.371094 L 18.460938 246.835938 C 32.367188 244.660156 45.816406 240.390625 58.433594 234.152344 L 60.652344 233.054688 C 65.710938 230.550781 70.351562 227.3125 74.445312 223.425781 L 83.511719 214.8125 L 72.585938 203.230469 L 70.78125 203.617188 L 64.726562 217.792969 C 64.65625 217.957031 64.503906 218.0625 64.328125 218.070312 C 64.148438 218.078125 63.992188 217.984375 63.910156 217.832031 L 60.574219 211.636719 L 50.261719 225.042969 C 50.167969 225.167969 50.015625 225.230469 49.859375 225.21875 C 49.703125 225.199219 49.566406 225.109375 49.496094 224.964844 L 47.898438 221.730469 L 38.359375 231.1875 C 38.253906 231.292969 38.105469 231.339844 37.960938 231.3125 C 37.816406 231.285156 37.691406 231.191406 37.628906 231.058594 L 36.492188 228.597656 C 34.367188 230.847656 25.085938 239.90625 9.425781 244.476562 Z M 8.53125 249.304688 C 8.425781 249.304688 8.324219 249.265625 8.242188 249.199219 L 4.109375 245.757812 C 3.980469 245.652344 3.921875 245.480469 3.957031 245.316406 C 3.992188 245.152344 4.113281 245.019531 4.277344 244.976562 L 9.175781 243.605469 C 26.792969 238.46875 36.183594 227.605469 36.273438 227.496094 C 36.375 227.378906 36.527344 227.320312 36.679688 227.339844 C 36.832031 227.363281 36.964844 227.460938 37.03125 227.601562 L 38.179688 230.09375 L 47.707031 220.648438 C 47.808594 220.542969 47.953125 220.5 48.097656 220.523438 C 48.242188 220.546875 48.367188 220.636719 48.429688 220.769531 L 49.988281 223.917969 L 60.28125 210.53125 C 60.375 210.40625 60.527344 210.34375 60.675781 210.355469 C 60.832031 210.367188 60.96875 210.457031 61.039062 210.589844 L 64.261719 216.578125 L 70.042969 203.046875 C 70.101562 202.914062 70.21875 202.8125 70.363281 202.78125 L 72.644531 202.289062 C 72.800781 202.257812 72.960938 202.308594 73.070312 202.421875 L 84.480469 214.519531 C 84.652344 214.699219 84.644531 214.984375 84.460938 215.15625 L 75.066406 224.082031 C 70.910156 228.03125 66.195312 231.324219 61.054688 233.867188 L 58.835938 234.960938 C 46.136719 241.242188 32.597656 245.539062 18.601562 247.734375 L 8.601562 249.300781 C 8.578125 249.304688 8.554688 249.304688 8.53125 249.304688 " fill-opacity="1" fill-rule="nonzero"/><path fill="#000000" d="M 98.855469 271.375 L 74.082031 271.375 L 74.082031 244.570312 L 98.855469 244.570312 L 98.855469 271.375 " fill-opacity="1" fill-rule="nonzero"/><path fill="#4ada85" d="M 41.246094 269.144531 L 54.324219 265.617188 L 68.386719 254.640625 L 81.796875 263.5625 C 84.644531 265.453125 88.152344 266.070312 91.476562 265.257812 L 92.046875 265.117188 C 95.402344 264.296875 97.988281 261.625 98.699219 258.246094 L 98.878906 257.394531 C 99.234375 255.71875 101.585938 255.605469 102.09375 257.242188 L 111.828125 288.414062 L 101.421875 291.695312 C 95.90625 293.4375 90.152344 294.324219 84.367188 294.324219 L 82.046875 294.324219 C 67.941406 294.324219 53.917969 292.175781 40.457031 287.957031 L 30.796875 284.929688 L 28.617188 280.011719 L 28.617188 279.648438 C 28.617188 277.035156 29.75 274.546875 31.722656 272.835938 L 31.753906 272.808594 C 32.726562 271.964844 33.871094 271.335938 35.105469 270.96875 L 41.246094 269.144531 " fill-opacity="1" fill-rule="nonzero"/><path fill="#ffffff" d="M 74.078125 258.425781 L 68.386719 254.640625 L 54.324219 265.617188 L 61.28125 265.617188 C 63.601562 265.617188 65.855469 264.839844 67.683594 263.414062 L 74.078125 258.425781 " fill-opacity="1" fill-rule="nonzero"/><path fill="#000000" d="M 55.640625 265.164062 L 61.28125 265.164062 C 63.488281 265.164062 65.664062 264.414062 67.40625 263.058594 L 73.304688 258.457031 L 68.410156 255.199219 Z M 61.28125 266.066406 L 54.324219 266.066406 C 54.132812 266.066406 53.960938 265.945312 53.898438 265.761719 C 53.835938 265.578125 53.894531 265.375 54.046875 265.257812 L 68.109375 254.285156 C 68.261719 254.164062 68.476562 254.15625 68.636719 254.265625 L 74.328125 258.050781 C 74.449219 258.128906 74.527344 258.265625 74.53125 258.410156 C 74.535156 258.554688 74.472656 258.695312 74.359375 258.785156 L 67.964844 263.769531 C 66.0625 265.25 63.691406 266.066406 61.28125 266.066406 " fill-opacity="1" fill-rule="nonzero"/><path fill="#ffffff" d="M 78.5625 277.441406 L 78.5625 281.679688 L 94.378906 273.921875 L 94.644531 281.65625 L 106.539062 271.480469 L 108.804688 272.050781 L 113.667969 287.949219 L 101.289062 291.785156 C 95.859375 293.46875 90.207031 294.324219 84.523438 294.324219 L 82.046875 294.324219 C 67.941406 294.324219 53.917969 292.175781 40.457031 287.957031 L 30.796875 284.929688 L 28.617188 280.011719 L 33.621094 280.957031 C 52.035156 284.222656 65.316406 278.5 65.316406 278.5 L 65.222656 281.890625 L 78.5625 277.441406 " fill-opacity="1" fill-rule="nonzero"/><path fill="#000000" d="M 31.128906 284.558594 L 40.59375 287.527344 C 54.023438 291.738281 67.972656 293.875 82.046875 293.875 L 84.523438 293.875 C 90.167969 293.875 95.761719 293.027344 101.15625 291.355469 L 113.105469 287.652344 L 108.445312 272.425781 L 106.65625 271.976562 L 94.941406 282 C 94.808594 282.113281 94.621094 282.140625 94.464844 282.070312 C 94.304688 282 94.199219 281.84375 94.195312 281.671875 L 93.953125 274.636719 L 78.761719 282.082031 C 78.621094 282.152344 78.457031 282.144531 78.324219 282.0625 C 78.191406 281.980469 78.109375 281.835938 78.109375 281.679688 L 78.109375 278.070312 L 65.367188 282.320312 C 65.226562 282.367188 65.074219 282.339844 64.953125 282.253906 C 64.835938 282.164062 64.769531 282.023438 64.769531 281.878906 L 64.84375 279.167969 C 61.941406 280.242188 49.601562 284.25 33.542969 281.402344 L 29.382812 280.617188 Z M 84.523438 294.777344 L 82.046875 294.777344 C 67.878906 294.777344 53.839844 292.628906 40.320312 288.390625 L 30.664062 285.359375 C 30.539062 285.320312 30.4375 285.230469 30.382812 285.113281 L 28.207031 280.195312 C 28.136719 280.042969 28.160156 279.863281 28.265625 279.730469 C 28.371094 279.601562 28.535156 279.539062 28.703125 279.570312 L 33.703125 280.511719 C 51.769531 283.714844 65.003906 278.140625 65.136719 278.085938 C 65.277344 278.023438 65.441406 278.039062 65.570312 278.125 C 65.695312 278.210938 65.773438 278.359375 65.769531 278.511719 L 65.695312 281.253906 L 78.421875 277.011719 C 78.558594 276.964844 78.710938 276.988281 78.828125 277.074219 C 78.945312 277.160156 79.015625 277.296875 79.015625 277.441406 L 79.015625 280.953125 L 94.179688 273.519531 C 94.316406 273.449219 94.480469 273.457031 94.613281 273.535156 C 94.742188 273.613281 94.828125 273.753906 94.832031 273.90625 L 95.066406 280.699219 L 106.246094 271.136719 C 106.359375 271.042969 106.507812 271.003906 106.652344 271.042969 L 108.914062 271.613281 C 109.070312 271.652344 109.191406 271.769531 109.238281 271.917969 L 114.101562 287.820312 C 114.171875 288.058594 114.039062 288.308594 113.800781 288.382812 L 101.421875 292.21875 C 95.945312 293.914062 90.257812 294.777344 84.523438 294.777344 " fill-opacity="1" fill-rule="nonzero"/><path fill="#8c7bff" d="M 134.441406 118.003906 L 33.917969 118.003906 C 24.023438 118.003906 16.535156 126.949219 18.285156 136.6875 L 27.769531 189.492188 L 60.75 189.492188 L 55.023438 152.027344 L 113.238281 152.027344 C 124.949219 152.027344 134.441406 142.539062 134.441406 130.828125 L 134.441406 118.003906 " fill-opacity="1" fill-rule="nonzero"/><path fill="#8c7bff" d="M 158.128906 132.875 L 162.875 114.160156 L 124.75 114.160156 L 77.273438 150.785156 C 70.933594 155.671875 67.21875 163.222656 67.21875 171.226562 L 67.21875 250.015625 L 105.066406 250.015625 L 105.066406 177.007812 L 130.457031 151.875 L 133.890625 151.851562 C 145.347656 151.78125 155.308594 143.980469 158.128906 132.875 " fill-opacity="1" fill-rule="nonzero"/><path fill="#000000" d="M 67.671875 249.929688 L 104.613281 249.929688 L 104.613281 177.007812 C 104.613281 176.886719 104.660156 176.773438 104.746094 176.6875 L 130.136719 151.550781 C 130.222656 151.46875 130.335938 151.421875 130.453125 151.421875 L 133.886719 151.398438 C 145.136719 151.332031 154.925781 143.664062 157.6875 132.765625 L 162.292969 114.609375 L 124.90625 114.609375 L 77.546875 151.140625 C 71.363281 155.910156 67.671875 163.417969 67.671875 171.226562 Z M 105.066406 250.835938 L 67.21875 250.835938 C 66.96875 250.835938 66.769531 250.632812 66.769531 250.382812 L 66.769531 171.226562 C 66.769531 163.140625 70.589844 155.363281 76.996094 150.425781 L 124.476562 113.800781 C 124.554688 113.738281 124.652344 113.707031 124.75 113.707031 L 162.875 113.707031 C 163.015625 113.707031 163.144531 113.773438 163.230469 113.878906 C 163.316406 113.988281 163.347656 114.136719 163.3125 114.269531 L 158.5625 132.988281 L 158.128906 132.875 L 158.5625 132.988281 C 155.699219 144.289062 145.550781 152.230469 133.890625 152.304688 L 130.644531 152.324219 L 105.519531 177.195312 L 105.519531 250.382812 C 105.519531 250.632812 105.316406 250.835938 105.066406 250.835938 " fill-opacity="1" fill-rule="nonzero"/><path fill="#fda4ff" d="M 96.164062 95.050781 L 82.957031 90.625 C 81.101562 90.003906 79.054688 90.519531 77.714844 91.945312 L 74.648438 95.203125 C 73.871094 96.03125 73.28125 97.015625 72.921875 98.09375 L 72.089844 100.578125 C 71.734375 101.640625 72.304688 102.789062 73.367188 103.144531 L 73.632812 103.234375 C 74.695312 103.589844 75.84375 103.015625 76.203125 101.957031 L 76.746094 100.332031 C 77.097656 99.28125 77.671875 98.320312 78.433594 97.511719 L 80.023438 95.820312 C 80.722656 95.078125 81.789062 94.808594 82.753906 95.132812 L 94.785156 99.164062 L 96.164062 95.050781 " fill-opacity="1" fill-rule="nonzero"/><path fill="#fda4ff" d="M 91.550781 96.917969 L 83.90625 94.355469 C 82.054688 93.734375 80.007812 94.25 78.667969 95.675781 L 75.601562 98.933594 C 74.824219 99.761719 74.234375 100.746094 73.871094 101.824219 L 73.039062 104.308594 C 72.683594 105.371094 73.257812 106.519531 74.316406 106.875 L 74.585938 106.964844 C 75.644531 107.320312 76.796875 106.75 77.152344 105.6875 L 77.695312 104.0625 C 78.046875 103.011719 78.625 102.050781 79.382812 101.242188 L 80.972656 99.550781 C 81.671875 98.808594 82.738281 98.539062 83.703125 98.863281 L 90.171875 101.03125 L 91.550781 96.917969 " fill-opacity="1" fill-rule="nonzero"/><path fill="#fda4ff" d="M 92.832031 100.273438 L 85.1875 97.710938 C 83.332031 97.089844 81.285156 97.605469 79.945312 99.03125 L 76.878906 102.289062 C 76.101562 103.117188 75.511719 104.101562 75.152344 105.179688 L 74.320312 107.664062 C 73.964844 108.726562 74.535156 109.875 75.597656 110.230469 L 75.863281 110.320312 C 76.925781 110.675781 78.074219 110.105469 78.429688 109.042969 L 78.976562 107.417969 C 79.328125 106.367188 79.902344 105.40625 80.664062 104.597656 L 82.253906 102.90625 C 82.953125 102.164062 84.019531 101.894531 84.984375 102.21875 L 91.453125 104.386719 L 92.832031 100.273438 " fill-opacity="1" fill-rule="nonzero"/><path fill="#fda4ff" d="M 111.511719 105.109375 L 111.511719 93.179688 L 91.269531 93.203125 L 86.035156 91.585938 L 82.714844 101.488281 L 90.007812 103.929688 L 89.863281 104.097656 C 89.257812 104.789062 88.386719 105.1875 87.464844 105.1875 L 83.382812 105.1875 C 82.292969 105.1875 81.40625 106.070312 81.40625 107.160156 L 81.40625 107.296875 C 81.40625 108.382812 82.285156 109.261719 83.371094 109.269531 C 85.160156 109.277344 88.660156 109.28125 89.074219 109.257812 C 89.296875 109.242188 89.519531 109.214844 89.742188 109.175781 L 111.511719 105.109375 " fill-opacity="1" fill-rule="nonzero"/><path fill="#fda4ff" d="M 89.742188 109.175781 C 90.402344 109.050781 91.039062 108.800781 91.621094 108.433594 L 96.96875 105.109375 L 111.511719 105.109375 L 89.742188 109.175781 " fill-opacity="1" fill-rule="nonzero"/><path fill="#000000" d="M 76.511719 110.878906 C 76.246094 110.878906 75.980469 110.832031 75.71875 110.75 L 75.453125 110.65625 C 74.15625 110.222656 73.457031 108.816406 73.890625 107.519531 L 74.722656 105.035156 C 75.101562 103.90625 75.734375 102.847656 76.550781 101.980469 L 79.617188 98.71875 C 81.070312 97.171875 83.316406 96.609375 85.328125 97.285156 L 86.558594 97.695312 C 86.796875 97.773438 86.925781 98.03125 86.84375 98.269531 C 86.765625 98.507812 86.507812 98.632812 86.273438 98.550781 L 85.042969 98.140625 C 83.363281 97.578125 81.492188 98.046875 80.277344 99.339844 L 77.210938 102.597656 C 76.480469 103.375 75.917969 104.316406 75.582031 105.320312 L 74.75 107.808594 C 74.472656 108.632812 74.917969 109.523438 75.742188 109.800781 L 76.007812 109.890625 C 76.40625 110.023438 76.835938 109.996094 77.210938 109.804688 C 77.585938 109.621094 77.867188 109.296875 78 108.898438 L 78.546875 107.277344 C 78.921875 106.15625 79.523438 105.148438 80.332031 104.285156 L 81.925781 102.597656 C 82.742188 101.726562 83.996094 101.410156 85.128906 101.789062 L 89.917969 103.394531 C 90.152344 103.472656 90.28125 103.730469 90.203125 103.96875 C 90.121094 104.203125 89.867188 104.332031 89.628906 104.253906 L 84.839844 102.648438 C 84.046875 102.382812 83.15625 102.605469 82.582031 103.214844 L 80.992188 104.90625 C 80.273438 105.671875 79.738281 106.566406 79.402344 107.5625 L 78.859375 109.183594 C 78.648438 109.8125 78.207031 110.320312 77.613281 110.617188 C 77.265625 110.789062 76.890625 110.878906 76.511719 110.878906 " fill-opacity="1" fill-rule="nonzero"/><path fill="#000000" d="M 74.492188 107.390625 C 74.445312 107.390625 74.398438 107.382812 74.351562 107.367188 L 74.171875 107.308594 C 72.875 106.871094 72.175781 105.464844 72.609375 104.167969 L 73.441406 101.683594 C 73.820312 100.554688 74.453125 99.496094 75.269531 98.628906 L 78.335938 95.371094 C 79.792969 93.820312 82.035156 93.257812 84.050781 93.933594 L 86.308594 94.6875 C 86.542969 94.769531 86.671875 95.027344 86.59375 95.261719 C 86.515625 95.496094 86.257812 95.625 86.019531 95.546875 L 83.761719 94.789062 C 82.082031 94.226562 80.210938 94.695312 78.996094 95.988281 L 75.929688 99.246094 C 75.199219 100.023438 74.636719 100.964844 74.300781 101.972656 L 73.46875 104.457031 C 73.191406 105.277344 73.636719 106.171875 74.460938 106.449219 L 74.636719 106.507812 C 74.871094 106.585938 75 106.84375 74.921875 107.082031 C 74.859375 107.269531 74.683594 107.390625 74.492188 107.390625 " fill-opacity="1" fill-rule="nonzero"/><path fill="#000000" d="M 86.785156 109.75 C 86.277344 109.75 85.730469 109.746094 85.144531 109.734375 C 84.59375 109.730469 84.003906 109.722656 83.371094 109.71875 C 82.039062 109.714844 80.957031 108.628906 80.957031 107.296875 L 80.957031 107.160156 C 80.957031 105.824219 82.042969 104.734375 83.382812 104.734375 L 87.464844 104.734375 C 88.253906 104.734375 89.003906 104.394531 89.523438 103.800781 L 89.664062 103.632812 C 89.832031 103.445312 90.117188 103.421875 90.304688 103.585938 C 90.492188 103.75 90.511719 104.039062 90.351562 104.226562 L 90.203125 104.390625 C 89.515625 105.183594 88.515625 105.640625 87.464844 105.640625 L 83.382812 105.640625 C 82.542969 105.640625 81.859375 106.320312 81.859375 107.160156 L 81.859375 107.296875 C 81.859375 108.128906 82.539062 108.8125 83.375 108.816406 C 84.011719 108.816406 84.601562 108.828125 85.15625 108.832031 C 88.316406 108.871094 90.0625 108.890625 91.378906 108.050781 L 96.730469 104.722656 C 96.804688 104.679688 96.886719 104.65625 96.96875 104.65625 L 111.058594 104.65625 L 111.058594 93.671875 L 91.421875 93.652344 C 91.378906 93.652344 91.332031 93.644531 91.292969 93.632812 L 82.824219 91.058594 C 81.132812 90.492188 79.257812 90.960938 78.042969 92.253906 L 74.980469 95.511719 C 74.25 96.285156 73.6875 97.230469 73.351562 98.238281 L 72.519531 100.722656 C 72.382812 101.121094 72.414062 101.546875 72.601562 101.925781 C 72.789062 102.300781 73.113281 102.582031 73.511719 102.714844 C 73.746094 102.792969 73.875 103.050781 73.796875 103.289062 C 73.714844 103.527344 73.460938 103.652344 73.222656 103.574219 C 72.59375 103.363281 72.085938 102.921875 71.792969 102.328125 C 71.496094 101.734375 71.449219 101.0625 71.660156 100.433594 L 72.492188 97.949219 C 72.871094 96.816406 73.503906 95.761719 74.320312 94.890625 L 77.386719 91.632812 C 78.84375 90.085938 81.085938 89.523438 83.101562 90.195312 L 91.488281 92.75 L 111.511719 92.765625 C 111.761719 92.769531 111.964844 92.96875 111.964844 93.21875 L 111.964844 105.105469 C 111.964844 105.359375 111.761719 105.558594 111.511719 105.558594 L 97.097656 105.558594 L 91.859375 108.816406 C 90.601562 109.621094 89.066406 109.75 86.785156 109.75 " fill-opacity="1" fill-rule="nonzero"/><path fill="#fed101" d="M 135.15625 76.890625 L 123.933594 89.546875 C 122.421875 91.253906 120.246094 92.230469 117.964844 92.230469 L 99.015625 92.230469 L 99.015625 108.371094 L 122.726562 108.363281 C 126.285156 108.359375 129.675781 106.828125 132.027344 104.15625 L 150.296875 83.414062 L 142.230469 76.425781 C 140.140625 74.621094 136.988281 74.828125 135.15625 76.890625 " fill-opacity="1" fill-rule="nonzero"/><path fill="#fed101" d="M 165.90625 121.636719 L 119.9375 121.636719 L 120.09375 116.132812 L 130.90625 116.132812 L 132.417969 84.207031 C 132.773438 77.9375 137.363281 73.167969 143.460938 73.167969 L 157.167969 73.167969 L 165.90625 121.636719 " fill-opacity="1" fill-rule="nonzero"/><path fill="#000000" d="M 82.71875 116.914062 L 35.84375 116.914062 L 13.800781 79.160156 L 60.671875 79.160156 L 82.71875 116.914062 " fill-opacity="1" fill-rule="nonzero"/><path fill="#000000" d="M 35.84375 121.683594 L 120.121094 121.683594 L 120.121094 116.917969 L 35.84375 116.917969 L 35.84375 121.683594 " fill-opacity="1" fill-rule="nonzero"/><path fill="#ffffff" d="M 44.742188 99.320312 C 44.25 97.523438 45.234375 95.683594 46.949219 95.214844 C 48.660156 94.746094 50.445312 95.828125 50.9375 97.625 C 51.433594 99.425781 50.445312 101.261719 48.734375 101.730469 C 47.023438 102.199219 45.234375 101.121094 44.742188 99.320312 " fill-opacity="1" fill-rule="nonzero"/><path fill="#fda4ff" d="M 126.324219 103.890625 L 108.808594 103.882812 L 108.808594 118.207031 L 126.324219 118.210938 L 126.324219 103.890625 " fill-opacity="1" fill-rule="nonzero"/><path fill="#fda4ff" d="M 93.082031 108.339844 L 91.527344 110.019531 C 90.742188 110.867188 90.664062 112.152344 91.339844 113.089844 L 92.867188 115.207031 L 96.566406 111.082031 L 119.808594 111.082031 L 119.808594 106.21875 L 97.941406 106.21875 C 96.097656 106.21875 94.335938 106.988281 93.082031 108.339844 " fill-opacity="1" fill-rule="nonzero"/><path fill="#fda4ff" d="M 93.800781 105.304688 L 92.921875 106.253906 C 92.136719 107.105469 92.058594 108.386719 92.730469 109.324219 L 94.257812 111.445312 L 97.957031 107.316406 L 119.808594 107.316406 L 119.808594 103.933594 L 116.101562 103.933594 C 114.566406 103.933594 111.832031 102.453125 108.367188 102.453125 L 100.328125 102.453125 C 97.847656 102.453125 95.484375 103.488281 93.800781 105.304688 " fill-opacity="1" fill-rule="nonzero"/><path fill="#000000" d="M 91.339844 113.542969 C 91.199219 113.542969 91.0625 113.476562 90.972656 113.351562 C 90.175781 112.246094 90.269531 110.714844 91.195312 109.710938 L 92.75 108.035156 C 94.085938 106.59375 95.976562 105.765625 97.941406 105.765625 L 102.21875 105.765625 C 102.46875 105.765625 102.671875 105.96875 102.671875 106.21875 C 102.671875 106.46875 102.46875 106.671875 102.21875 106.671875 L 97.941406 106.671875 C 96.226562 106.671875 94.578125 107.390625 93.414062 108.648438 L 91.859375 110.328125 C 91.222656 111.015625 91.160156 112.066406 91.707031 112.824219 C 91.851562 113.027344 91.808594 113.308594 91.605469 113.457031 C 91.523438 113.515625 91.433594 113.542969 91.339844 113.542969 " fill-opacity="1" fill-rule="nonzero"/><path fill="#fda4ff" d="M 92.539062 111.605469 L 90.675781 113.621094 C 89.890625 114.46875 89.8125 115.753906 90.488281 116.691406 L 92.015625 118.8125 L 95.714844 114.683594 L 110.113281 114.683594 L 110.113281 109.820312 L 96.632812 109.820312 C 95.078125 109.820312 93.59375 110.46875 92.539062 111.605469 " fill-opacity="1" fill-rule="nonzero"/><path fill="#000000" d="M 91.082031 117.96875 C 90.941406 117.96875 90.804688 117.902344 90.714844 117.78125 L 90.121094 116.957031 C 89.324219 115.847656 89.414062 114.316406 90.34375 113.316406 L 92.207031 111.300781 C 93.347656 110.074219 94.957031 109.367188 96.632812 109.367188 L 102.257812 109.367188 C 102.507812 109.367188 102.710938 109.570312 102.710938 109.820312 C 102.710938 110.070312 102.507812 110.273438 102.257812 110.273438 L 96.632812 110.273438 C 95.210938 110.273438 93.839844 110.871094 92.871094 111.914062 L 91.007812 113.929688 C 90.371094 114.617188 90.308594 115.667969 90.855469 116.425781 L 91.449219 117.253906 C 91.59375 117.453125 91.546875 117.738281 91.347656 117.882812 C 91.265625 117.941406 91.175781 117.96875 91.082031 117.96875 " fill-opacity="1" fill-rule="nonzero"/><path fill="#fda4ff" d="M 93.222656 115.148438 L 91.277344 117.25 C 90.554688 118.027344 90.484375 119.207031 91.105469 120.070312 C 91.9375 121.226562 93.625 121.316406 94.578125 120.253906 L 95.632812 119.078125 C 96.136719 118.515625 96.855469 118.191406 97.613281 118.191406 L 109.703125 118.191406 C 112.867188 118.191406 115.089844 118.011719 118.136719 113.324219 L 97.386719 113.328125 C 95.804688 113.328125 94.296875 113.988281 93.222656 115.148438 " fill-opacity="1" fill-rule="nonzero"/><path fill="#000000" d="M 92.917969 121.449219 C 92.871094 121.449219 92.820312 121.449219 92.773438 121.445312 C 91.957031 121.402344 91.214844 120.996094 90.738281 120.335938 C 89.992188 119.300781 90.082031 117.875 90.945312 116.941406 L 92.890625 114.839844 C 94.046875 113.59375 95.683594 112.875 97.386719 112.875 L 102.070312 112.875 C 102.320312 112.875 102.523438 113.078125 102.523438 113.328125 C 102.523438 113.578125 102.320312 113.78125 102.070312 113.78125 L 97.386719 113.78125 C 95.9375 113.78125 94.539062 114.390625 93.554688 115.457031 L 91.609375 117.558594 C 91.035156 118.175781 90.976562 119.121094 91.472656 119.804688 C 91.789062 120.246094 92.28125 120.515625 92.820312 120.542969 C 93.359375 120.570312 93.878906 120.355469 94.238281 119.953125 L 95.296875 118.773438 C 95.886719 118.117188 96.730469 117.738281 97.613281 117.738281 L 110.984375 117.738281 C 113.164062 117.738281 115.195312 116.664062 116.417969 114.859375 C 116.558594 114.652344 116.839844 114.597656 117.046875 114.738281 C 117.253906 114.878906 117.304688 115.160156 117.167969 115.367188 C 115.773438 117.417969 113.464844 118.644531 110.984375 118.644531 L 97.613281 118.644531 C 96.984375 118.644531 96.386719 118.914062 95.96875 119.378906 L 94.914062 120.554688 C 94.402344 121.128906 93.679688 121.449219 92.917969 121.449219 " fill-opacity="1" fill-rule="nonzero"/><path fill="#000000" d="M 126.324219 118.664062 L 106.371094 118.664062 C 106.121094 118.664062 105.917969 118.460938 105.917969 118.214844 C 105.917969 117.964844 106.121094 117.761719 106.371094 117.761719 L 125.871094 117.761719 L 125.871094 104.34375 L 116.796875 104.34375 C 115.335938 104.34375 114.203125 104.03125 113.003906 103.699219 C 111.585938 103.3125 110.117188 102.90625 107.832031 102.90625 L 100.328125 102.90625 C 97.984375 102.90625 95.726562 103.894531 94.132812 105.613281 L 93.253906 106.5625 C 92.703125 107.15625 92.570312 108.011719 92.914062 108.746094 C 93.019531 108.972656 92.921875 109.242188 92.695312 109.347656 C 92.46875 109.453125 92.203125 109.355469 92.09375 109.128906 C 91.59375 108.0625 91.789062 106.816406 92.589844 105.949219 L 93.46875 104.996094 C 95.230469 103.09375 97.730469 102 100.328125 102 L 107.832031 102 C 110.242188 102 111.835938 102.441406 113.246094 102.828125 C 114.429688 103.15625 115.457031 103.441406 116.796875 103.441406 L 126.324219 103.441406 C 126.574219 103.441406 126.777344 103.644531 126.777344 103.894531 L 126.777344 118.214844 C 126.777344 118.460938 126.574219 118.664062 126.324219 118.664062 " fill-opacity="1" fill-rule="nonzero"/><path fill="#fed101" d="M 158.078125 73.167969 L 157.003906 73.167969 L 150.183594 100.0625 C 149.742188 101.808594 148.167969 103.03125 146.367188 103.027344 L 121.546875 103.007812 L 121.53125 120.167969 L 150.9375 120.191406 C 157.878906 120.195312 163.929688 115.488281 165.640625 108.765625 L 170.59375 89.25 C 172.664062 81.09375 166.5 73.167969 158.078125 73.167969 " fill-opacity="1" fill-rule="nonzero"/><path fill="#000000" d="M 150.949219 120.644531 C 150.945312 120.644531 150.941406 120.644531 150.9375 120.644531 L 121.53125 120.617188 C 121.28125 120.617188 121.078125 120.417969 121.078125 120.164062 L 121.09375 103.007812 C 121.09375 102.757812 121.296875 102.554688 121.546875 102.554688 L 146.367188 102.578125 C 146.367188 102.578125 146.367188 102.578125 146.371094 102.578125 C 147.96875 102.578125 149.355469 101.496094 149.746094 99.949219 L 153.109375 86.683594 C 153.171875 86.441406 153.417969 86.296875 153.660156 86.355469 C 153.902344 86.417969 154.046875 86.664062 153.988281 86.90625 L 150.625 100.171875 C 150.128906 102.117188 148.382812 103.480469 146.371094 103.480469 C 146.367188 103.480469 146.367188 103.480469 146.367188 103.480469 L 122 103.460938 L 121.984375 119.714844 L 150.9375 119.738281 C 150.941406 119.738281 150.945312 119.738281 150.949219 119.738281 C 157.6875 119.738281 163.542969 115.183594 165.203125 108.65625 L 170.15625 89.136719 C 171.105469 85.386719 170.289062 81.480469 167.910156 78.425781 C 165.535156 75.371094 161.953125 73.617188 158.078125 73.617188 L 156.023438 73.617188 C 155.777344 73.617188 155.570312 73.417969 155.570312 73.167969 C 155.570312 72.914062 155.777344 72.714844 156.023438 72.714844 L 158.078125 72.714844 C 162.230469 72.714844 166.074219 74.59375 168.628906 77.871094 C 171.175781 81.148438 172.054688 85.335938 171.03125 89.359375 L 166.078125 108.878906 C 164.320312 115.808594 158.097656 120.644531 150.949219 120.644531 " fill-opacity="1" fill-rule="nonzero"/><path fill="#ffffff" d="M 182.601562 271.035156 C 174.46875 268.21875 170.164062 259.363281 172.984375 251.257812 C 175.804688 243.144531 184.6875 238.851562 192.820312 241.664062 C 200.953125 244.480469 205.257812 253.335938 202.4375 261.445312 C 199.613281 269.554688 190.734375 273.847656 182.601562 271.035156 Z M 217.597656 273.214844 L 221.648438 261.570312 L 214.371094 259.050781 C 214.667969 256.167969 214.484375 253.304688 213.867188 250.554688 L 220.804688 247.203125 L 215.410156 236.109375 L 208.472656 239.460938 C 206.691406 237.277344 204.550781 235.359375 202.097656 233.804688 L 204.625 226.546875 L 192.945312 222.507812 L 190.417969 229.765625 C 187.527344 229.472656 184.65625 229.65625 181.898438 230.269531 L 178.535156 223.351562 L 167.414062 228.730469 L 170.773438 235.644531 C 168.585938 237.421875 166.660156 239.558594 165.101562 242.003906 L 157.488281 239.722656 L 153.769531 251.132812 L 161.050781 253.652344 C 160.753906 256.53125 160.9375 259.398438 161.554688 262.144531 L 154.617188 265.5 L 160.011719 276.589844 L 166.945312 273.238281 C 168.730469 275.421875 170.871094 277.339844 173.324219 278.894531 L 170.796875 286.152344 L 182.476562 290.191406 L 185.003906 282.933594 C 187.894531 283.230469 190.765625 283.042969 193.523438 282.433594 L 196.886719 289.347656 L 208.007812 283.96875 L 204.644531 277.054688 C 206.835938 275.277344 208.761719 273.140625 210.316406 270.695312 L 217.597656 273.214844 " fill-opacity="1" fill-rule="nonzero"/><path fill="#000000" d="M 187.722656 241.257812 C 181.453125 241.257812 175.578125 245.171875 173.410156 251.402344 C 172.089844 255.207031 172.328125 259.296875 174.082031 262.921875 C 175.847656 266.554688 178.921875 269.285156 182.75 270.605469 C 190.632812 273.335938 199.273438 269.160156 202.007812 261.296875 C 203.332031 257.492188 203.09375 253.402344 201.335938 249.78125 C 199.574219 246.148438 196.496094 243.417969 192.671875 242.09375 C 191.035156 241.527344 189.363281 241.257812 187.722656 241.257812 Z M 187.695312 272.347656 C 185.957031 272.347656 184.1875 272.0625 182.453125 271.460938 C 178.398438 270.058594 175.140625 267.164062 173.269531 263.3125 C 171.40625 259.472656 171.152344 255.136719 172.558594 251.105469 C 175.457031 242.773438 184.613281 238.347656 192.96875 241.238281 C 197.019531 242.640625 200.285156 245.535156 202.152344 249.386719 C 204.011719 253.226562 204.265625 257.5625 202.863281 261.59375 C 200.566406 268.195312 194.339844 272.347656 187.695312 272.347656 Z M 171.375 285.871094 L 182.199219 289.617188 L 184.578125 282.785156 C 184.644531 282.589844 184.839844 282.464844 185.050781 282.484375 C 187.851562 282.769531 190.667969 282.605469 193.425781 281.992188 C 193.628906 281.949219 193.835938 282.046875 193.929688 282.234375 L 197.09375 288.746094 L 207.402344 283.761719 L 204.238281 277.253906 C 204.148438 277.0625 204.195312 276.835938 204.359375 276.703125 C 206.550781 274.925781 208.425781 272.824219 209.9375 270.453125 C 210.050781 270.277344 210.269531 270.199219 210.46875 270.269531 L 217.320312 272.640625 L 221.074219 261.847656 L 214.222656 259.476562 C 214.023438 259.410156 213.898438 259.214844 213.921875 259.003906 C 214.207031 256.210938 214.039062 253.402344 213.425781 250.65625 C 213.378906 250.449219 213.480469 250.238281 213.671875 250.148438 L 220.199219 246.992188 L 215.203125 236.714844 L 208.671875 239.871094 C 208.480469 239.960938 208.257812 239.910156 208.125 239.75 C 206.339844 237.5625 204.230469 235.691406 201.855469 234.191406 C 201.675781 234.074219 201.601562 233.855469 201.671875 233.660156 L 204.046875 226.828125 L 193.222656 223.082031 L 190.847656 229.914062 C 190.777344 230.109375 190.582031 230.234375 190.371094 230.214844 C 187.570312 229.929688 184.753906 230.09375 181.996094 230.707031 C 181.789062 230.753906 181.582031 230.652344 181.492188 230.464844 L 178.324219 223.957031 L 168.015625 228.9375 L 171.183594 235.449219 C 171.273438 235.636719 171.222656 235.863281 171.058594 235.996094 C 168.871094 237.777344 166.992188 239.878906 165.484375 242.246094 C 165.375 242.417969 165.164062 242.496094 164.972656 242.4375 L 157.78125 240.285156 L 154.339844 250.851562 L 161.199219 253.222656 C 161.394531 253.292969 161.519531 253.488281 161.5 253.695312 C 161.210938 256.488281 161.378906 259.300781 161.996094 262.046875 C 162.039062 262.25 161.9375 262.460938 161.75 262.554688 L 155.222656 265.707031 L 160.21875 275.988281 L 166.75 272.832031 C 166.9375 272.738281 167.164062 272.789062 167.296875 272.949219 C 169.078125 275.136719 171.1875 277.007812 173.566406 278.511719 C 173.742188 278.625 173.820312 278.84375 173.75 279.042969 Z M 182.476562 290.644531 C 182.425781 290.644531 182.378906 290.636719 182.328125 290.621094 L 170.648438 286.582031 C 170.539062 286.542969 170.445312 286.457031 170.390625 286.347656 C 170.339844 286.242188 170.332031 286.117188 170.371094 286.003906 L 172.78125 279.082031 C 170.542969 277.621094 168.542969 275.847656 166.824219 273.800781 L 160.207031 276.996094 C 159.980469 277.105469 159.710938 277.011719 159.605469 276.789062 L 154.210938 265.695312 C 154.160156 265.589844 154.152344 265.464844 154.191406 265.351562 C 154.230469 265.238281 154.3125 265.144531 154.421875 265.089844 L 161.035156 261.894531 C 160.488281 259.277344 160.328125 256.613281 160.566406 253.960938 L 153.625 251.558594 C 153.390625 251.476562 153.265625 251.226562 153.339844 250.992188 L 157.058594 239.582031 C 157.132812 239.347656 157.382812 239.21875 157.617188 239.289062 L 164.90625 241.472656 C 166.371094 239.238281 168.152344 237.238281 170.214844 235.519531 L 167.003906 228.929688 C 166.953125 228.816406 166.945312 228.695312 166.984375 228.582031 C 167.023438 228.46875 167.105469 228.375 167.214844 228.324219 L 178.339844 222.945312 C 178.5625 222.835938 178.835938 222.929688 178.941406 223.15625 L 182.148438 229.75 C 184.773438 229.203125 187.445312 229.046875 190.109375 229.28125 L 192.515625 222.359375 C 192.597656 222.121094 192.855469 222 193.09375 222.082031 L 204.769531 226.121094 C 204.882812 226.160156 204.976562 226.242188 205.03125 226.351562 C 205.082031 226.457031 205.089844 226.585938 205.050781 226.695312 L 202.644531 233.617188 C 204.875 235.078125 206.878906 236.851562 208.597656 238.902344 L 215.214844 235.703125 C 215.4375 235.59375 215.707031 235.6875 215.816406 235.914062 L 221.210938 247.003906 C 221.261719 247.113281 221.269531 247.238281 221.230469 247.347656 C 221.191406 247.464844 221.109375 247.554688 221 247.609375 L 214.386719 250.808594 C 214.933594 253.421875 215.089844 256.085938 214.855469 258.738281 L 221.796875 261.140625 C 221.910156 261.179688 222.003906 261.265625 222.058594 261.371094 C 222.109375 261.480469 222.117188 261.605469 222.078125 261.714844 L 218.027344 273.363281 C 217.945312 273.597656 217.6875 273.722656 217.449219 273.640625 L 210.507812 271.238281 C 209.042969 273.46875 207.265625 275.464844 205.210938 277.179688 L 208.414062 283.773438 C 208.46875 283.882812 208.476562 284.003906 208.4375 284.121094 C 208.398438 284.230469 208.3125 284.324219 208.203125 284.375 L 197.082031 289.753906 C 196.859375 289.863281 196.589844 289.769531 196.476562 289.546875 L 193.269531 282.949219 C 190.648438 283.496094 187.976562 283.65625 185.3125 283.417969 L 182.90625 290.339844 C 182.839844 290.527344 182.664062 290.644531 182.476562 290.644531 " fill-opacity="1" fill-rule="nonzero"/><path fill="#4ada85" d="M 217.152344 236.964844 C 211.585938 235.039062 208.640625 228.980469 210.570312 223.429688 C 212.503906 217.878906 218.582031 214.941406 224.148438 216.867188 C 229.714844 218.792969 232.660156 224.851562 230.726562 230.402344 C 228.796875 235.953125 222.71875 238.890625 217.152344 236.964844 Z M 241.101562 238.457031 L 243.875 230.488281 L 238.894531 228.765625 C 239.097656 226.792969 238.972656 224.832031 238.550781 222.949219 L 243.296875 220.652344 L 239.609375 213.0625 L 234.859375 215.359375 C 233.640625 213.863281 232.175781 212.550781 230.496094 211.488281 L 232.222656 206.519531 L 224.230469 203.753906 L 222.503906 208.722656 C 220.527344 208.519531 218.558594 208.648438 216.671875 209.066406 L 214.371094 204.332031 L 206.757812 208.011719 L 209.058594 212.746094 C 207.558594 213.960938 206.242188 215.421875 205.175781 217.097656 L 199.964844 215.535156 L 197.421875 223.34375 L 202.402344 225.070312 C 202.203125 227.042969 202.328125 229.003906 202.75 230.882812 L 198.003906 233.175781 L 201.691406 240.769531 L 206.441406 238.472656 C 207.660156 239.96875 209.125 241.28125 210.804688 242.34375 L 209.074219 247.3125 L 217.070312 250.078125 L 218.796875 245.109375 C 220.773438 245.3125 222.742188 245.1875 224.625 244.765625 L 226.929688 249.5 L 234.542969 245.820312 L 232.238281 241.085938 C 233.738281 239.867188 235.054688 238.410156 236.121094 236.734375 L 241.101562 238.457031 " fill-opacity="1" fill-rule="nonzero"/><path fill="#ffffff" d="M 229.824219 0.546875 L 374.542969 0.546875 L 374.542969 103.765625 L 230.023438 104.277344 L 229.824219 0.546875 " fill-opacity="1" fill-rule="nonzero"/><path fill="#000000" d="M 230.476562 104.324219 L 374.089844 104.324219 L 374.089844 0.996094 L 230.277344 0.996094 Z M 374.542969 105.226562 L 230.023438 105.226562 C 229.773438 105.226562 229.570312 105.027344 229.570312 104.777344 L 229.371094 0.542969 C 229.371094 0.425781 229.421875 0.308594 229.503906 0.222656 C 229.589844 0.136719 229.703125 0.0898438 229.824219 0.0898438 L 374.542969 0.0898438 C 374.792969 0.0898438 374.996094 0.292969 374.996094 0.542969 L 374.996094 104.773438 C 374.996094 105.023438 374.792969 105.226562 374.542969 105.226562 " fill-opacity="1" fill-rule="nonzero"/><path fill="#6155ff" d="M 347.71875 17.550781 C 350.441406 17.550781 352.964844 18.410156 355.039062 19.871094 L 359.398438 13.8125 C 356.097656 11.457031 352.070312 10.070312 347.71875 10.070312 C 344.386719 10.070312 341.246094 10.882812 338.476562 12.320312 L 342 18.90625 C 343.722656 18.039062 345.664062 17.550781 347.71875 17.550781 " fill-opacity="1" fill-rule="nonzero"/><path fill="#8c7bff" d="M 335.671875 46.804688 L 340.027344 40.746094 C 336.929688 38.394531 334.929688 34.65625 334.929688 30.445312 C 334.929688 26.21875 336.945312 22.46875 340.054688 20.117188 L 336.511719 13.492188 C 331.082031 17.144531 327.511719 23.375 327.511719 30.445312 C 327.511719 37.148438 330.722656 43.089844 335.671875 46.804688 " fill-opacity="1" fill-rule="nonzero"/><path fill="#fed101" d="M 367.8125 28.277344 C 367.273438 23.113281 364.816406 18.53125 361.183594 15.25 L 356.789062 21.355469 C 358.820312 23.417969 360.164062 26.164062 360.449219 29.222656 L 367.8125 28.277344 " fill-opacity="1" fill-rule="nonzero"/><path fill="#fcb503" d="M 360.457031 31.535156 C 359.90625 38.144531 354.417969 43.335938 347.71875 43.335938 C 345.652344 43.335938 343.703125 42.839844 341.972656 41.960938 L 337.578125 48.070312 C 340.558594 49.816406 344.023438 50.820312 347.71875 50.820312 C 358.835938 50.820312 367.851562 41.769531 367.925781 30.582031 L 360.457031 31.535156 " fill-opacity="1" fill-rule="nonzero"/><path fill="#000000" d="M 363.433594 61.574219 L 327.511719 61.574219 C 327.261719 61.574219 327.058594 61.371094 327.058594 61.121094 C 327.058594 60.871094 327.261719 60.671875 327.511719 60.671875 L 363.433594 60.671875 C 363.683594 60.671875 363.886719 60.871094 363.886719 61.121094 C 363.886719 61.371094 363.683594 61.574219 363.433594 61.574219 " fill-opacity="1" fill-rule="nonzero"/><path fill="#000000" d="M 363.433594 69.949219 L 353.007812 69.949219 C 352.757812 69.949219 352.554688 69.746094 352.554688 69.496094 C 352.554688 69.246094 352.757812 69.042969 353.007812 69.042969 L 363.433594 69.042969 C 363.683594 69.042969 363.886719 69.246094 363.886719 69.496094 C 363.886719 69.746094 363.683594 69.949219 363.433594 69.949219 " fill-opacity="1" fill-rule="nonzero"/><path fill="#000000" d="M 350.3125 69.949219 L 327.511719 69.949219 C 327.261719 69.949219 327.0625 69.746094 327.0625 69.496094 C 327.0625 69.246094 327.261719 69.042969 327.511719 69.042969 L 350.3125 69.042969 C 350.558594 69.042969 350.765625 69.246094 350.765625 69.496094 C 350.765625 69.746094 350.558594 69.949219 350.3125 69.949219 " fill-opacity="1" fill-rule="nonzero"/><path fill="#000000" d="M 363.433594 78.324219 L 341.609375 78.324219 C 341.355469 78.324219 341.15625 78.121094 341.15625 77.871094 C 341.15625 77.621094 341.355469 77.417969 341.609375 77.417969 L 363.433594 77.417969 C 363.683594 77.417969 363.886719 77.621094 363.886719 77.871094 C 363.886719 78.121094 363.683594 78.324219 363.433594 78.324219 " fill-opacity="1" fill-rule="nonzero"/><path fill="#000000" d="M 338.914062 78.320312 L 327.511719 78.320312 C 327.261719 78.320312 327.058594 78.117188 327.058594 77.871094 C 327.058594 77.621094 327.261719 77.417969 327.511719 77.417969 L 338.914062 77.417969 C 339.160156 77.417969 339.363281 77.621094 339.363281 77.871094 C 339.363281 78.117188 339.160156 78.320312 338.914062 78.320312 " fill-opacity="1" fill-rule="nonzero"/><path fill="#4ada85" d="M 312.5625 60.730469 L 241.453125 60.730469 L 241.453125 11.699219 L 312.5625 11.699219 L 312.5625 60.730469 " fill-opacity="1" fill-rule="nonzero"/><path fill="#000000" d="M 237.914062 55.761719 C 237.835938 55.761719 237.75 55.738281 237.675781 55.695312 C 237.464844 55.5625 237.398438 55.285156 237.53125 55.070312 L 256.109375 25.070312 C 256.1875 24.945312 256.320312 24.867188 256.46875 24.859375 C 256.609375 24.847656 256.75 24.90625 256.84375 25.019531 L 266.949219 37.347656 L 273.957031 27.410156 C 274.039062 27.285156 274.179688 27.222656 274.332031 27.21875 C 274.480469 27.222656 274.621094 27.296875 274.699219 27.421875 L 288.121094 47.699219 L 310.210938 14.417969 C 310.351562 14.210938 310.628906 14.152344 310.835938 14.289062 C 311.046875 14.429688 311.101562 14.710938 310.964844 14.917969 L 288.5 48.765625 C 288.417969 48.890625 288.273438 48.96875 288.121094 48.96875 C 287.96875 48.96875 287.828125 48.890625 287.746094 48.765625 L 274.3125 28.472656 L 267.347656 38.355469 C 267.265625 38.46875 267.136719 38.539062 266.992188 38.542969 C 266.855469 38.550781 266.714844 38.488281 266.625 38.378906 L 256.546875 26.082031 L 238.300781 55.546875 C 238.214844 55.6875 238.066406 55.761719 237.914062 55.761719 " fill-opacity="1" fill-rule="nonzero"/><path fill="#000000" d="M 309.96875 22.8125 C 309.957031 22.8125 309.945312 22.8125 309.929688 22.808594 C 309.683594 22.789062 309.5 22.570312 309.515625 22.320312 L 310.078125 15.40625 L 303.492188 18.496094 C 303.265625 18.601562 302.996094 18.503906 302.890625 18.28125 C 302.78125 18.050781 302.878906 17.785156 303.105469 17.675781 L 310.398438 14.257812 C 310.542969 14.1875 310.714844 14.203125 310.847656 14.292969 C 310.980469 14.386719 311.050781 14.542969 311.042969 14.703125 L 310.421875 22.394531 C 310.402344 22.632812 310.203125 22.8125 309.96875 22.8125 " fill-opacity="1" fill-rule="nonzero"/><path fill="#000000" d="M 287.789062 69.949219 L 241.824219 69.949219 C 241.574219 69.949219 241.367188 69.746094 241.367188 69.496094 C 241.367188 69.246094 241.574219 69.042969 241.824219 69.042969 L 287.789062 69.042969 C 288.039062 69.042969 288.242188 69.246094 288.242188 69.496094 C 288.242188 69.746094 288.039062 69.949219 287.789062 69.949219 " fill-opacity="1" fill-rule="nonzero"/><path fill="#000000" d="M 264.808594 78.320312 L 241.824219 78.320312 C 241.574219 78.320312 241.371094 78.117188 241.371094 77.867188 C 241.371094 77.621094 241.574219 77.417969 241.824219 77.417969 L 264.808594 77.417969 C 265.054688 77.417969 265.257812 77.621094 265.257812 77.867188 C 265.257812 78.117188 265.054688 78.320312 264.808594 78.320312 " fill-opacity="1" fill-rule="nonzero"/><path fill="#fed101" d="M 310.707031 122.882812 C 316.84375 123.644531 321.707031 128.507812 322.46875 134.644531 L 356.972656 134.644531 C 356.101562 109.492188 335.867188 89.257812 310.707031 88.390625 L 310.707031 122.882812 " fill-opacity="1" fill-rule="nonzero"/><path fill="#fda4ff" d="M 337.839844 159.953125 C 342.976562 153.796875 346.171875 145.960938 346.464844 137.390625 L 319.65625 137.390625 C 319.445312 139.121094 318.808594 140.714844 317.859375 142.082031 L 337.839844 159.953125 " fill-opacity="1" fill-rule="nonzero"/><path fill="#fcb503" d="M 302.28125 128.144531 C 303.820312 126.796875 305.757812 125.894531 307.894531 125.628906 L 307.894531 98.828125 C 297.84375 99.175781 288.804688 103.5 282.304688 110.273438 L 302.28125 128.144531 " fill-opacity="1" fill-rule="nonzero"/><path fill="#8c7bff" d="M 316.109375 144.035156 C 314.257812 145.640625 311.847656 146.613281 309.203125 146.613281 C 306.972656 146.613281 304.902344 145.917969 303.199219 144.734375 L 285.324219 164.703125 C 291.792969 170.105469 300.121094 173.355469 309.203125 173.355469 C 319.769531 173.355469 329.304688 168.960938 336.085938 161.90625 L 316.109375 144.035156 " fill-opacity="1" fill-rule="nonzero"/><path fill="#ffffff" d="M 283.371094 162.953125 L 301.25 142.976562 C 299.640625 141.128906 298.667969 138.71875 298.667969 136.078125 C 298.667969 133.855469 299.359375 131.796875 300.53125 130.101562 L 280.550781 112.230469 C 275.164062 118.691406 271.921875 127.003906 271.921875 136.078125 C 271.921875 146.636719 276.3125 156.171875 283.371094 162.953125 " fill-opacity="1" fill-rule="nonzero"/><path fill="#000000" d="M 280.597656 112.882812 C 275.289062 119.417969 272.371094 127.636719 272.371094 136.078125 C 272.371094 146.03125 276.265625 155.324219 283.347656 162.300781 L 300.648438 142.964844 C 299.078125 141.015625 298.214844 138.589844 298.214844 136.078125 C 298.214844 133.972656 298.8125 131.941406 299.9375 130.179688 Z M 283.371094 163.40625 C 283.253906 163.40625 283.140625 163.359375 283.058594 163.28125 C 275.585938 156.097656 271.464844 146.4375 271.464844 136.078125 C 271.464844 127.269531 274.570312 118.699219 280.203125 111.941406 C 280.28125 111.847656 280.394531 111.789062 280.515625 111.777344 C 280.640625 111.769531 280.761719 111.8125 280.851562 111.894531 L 300.832031 129.765625 C 301.003906 129.917969 301.03125 130.171875 300.902344 130.359375 C 299.738281 132.046875 299.121094 134.023438 299.121094 136.078125 C 299.121094 138.503906 299.996094 140.847656 301.585938 142.679688 C 301.738281 142.851562 301.734375 143.105469 301.582031 143.277344 L 283.707031 163.253906 C 283.625 163.347656 283.511719 163.398438 283.386719 163.40625 C 283.382812 163.40625 283.375 163.40625 283.371094 163.40625 " fill-opacity="1" fill-rule="nonzero"/><path fill="#ffffff" d="M 76.054688 46.402344 C 69.820312 44.246094 66.519531 37.457031 68.683594 31.242188 C 70.847656 25.027344 77.652344 21.738281 83.886719 23.890625 C 90.117188 26.050781 93.417969 32.839844 91.257812 39.054688 C 89.09375 45.269531 82.285156 48.558594 76.054688 46.402344 Z M 102.875 48.074219 L 105.980469 39.148438 L 100.402344 37.21875 C 100.628906 35.007812 100.488281 32.8125 100.015625 30.707031 L 105.332031 28.136719 L 101.199219 19.636719 L 95.882812 22.203125 C 94.515625 20.53125 92.875 19.058594 90.996094 17.867188 L 92.929688 12.308594 L 83.980469 9.210938 L 82.042969 14.773438 C 79.828125 14.546875 77.628906 14.6875 75.515625 15.15625 L 72.9375 9.859375 L 64.414062 13.980469 L 66.988281 19.28125 C 65.3125 20.640625 63.835938 22.28125 62.640625 24.152344 L 56.804688 22.402344 L 53.957031 31.148438 L 59.535156 33.078125 C 59.308594 35.289062 59.449219 37.484375 59.921875 39.589844 L 54.605469 42.160156 L 58.738281 50.660156 L 64.054688 48.089844 C 65.421875 49.765625 67.0625 51.234375 68.941406 52.425781 L 67.007812 57.988281 L 75.957031 61.085938 L 77.894531 55.523438 C 80.109375 55.75 82.3125 55.609375 84.421875 55.140625 L 87 60.4375 L 95.527344 56.316406 L 92.949219 51.019531 C 94.628906 49.652344 96.101562 48.015625 97.296875 46.144531 L 102.875 48.074219 " fill-opacity="1" fill-rule="nonzero"/><path fill="#000000" d="M 79.980469 23.683594 C 75.21875 23.683594 70.757812 26.660156 69.109375 31.394531 C 68.105469 34.28125 68.285156 37.382812 69.621094 40.136719 C 70.960938 42.894531 73.296875 44.972656 76.203125 45.976562 C 82.1875 48.046875 88.75 44.875 90.828125 38.902344 C 91.835938 36.019531 91.652344 32.914062 90.316406 30.160156 C 88.980469 27.398438 86.644531 25.328125 83.738281 24.320312 C 82.496094 23.890625 81.226562 23.683594 79.980469 23.683594 Z M 79.957031 47.515625 C 78.613281 47.515625 77.246094 47.292969 75.90625 46.832031 C 72.769531 45.746094 70.25 43.507812 68.808594 40.53125 C 67.367188 37.5625 67.171875 34.210938 68.253906 31.09375 C 70.496094 24.65625 77.574219 21.234375 84.03125 23.464844 C 87.167969 24.550781 89.6875 26.789062 91.132812 29.765625 C 92.570312 32.734375 92.765625 36.085938 91.683594 39.199219 C 89.90625 44.304688 85.09375 47.515625 79.957031 47.515625 Z M 67.582031 57.710938 L 75.679688 60.511719 L 77.464844 55.375 C 77.535156 55.175781 77.730469 55.054688 77.941406 55.070312 C 80.074219 55.289062 82.222656 55.164062 84.324219 54.699219 C 84.527344 54.652344 84.738281 54.75 84.832031 54.9375 L 87.210938 59.835938 L 94.921875 56.109375 L 92.542969 51.214844 C 92.449219 51.027344 92.5 50.796875 92.664062 50.664062 C 94.335938 49.308594 95.765625 47.707031 96.914062 45.902344 C 97.027344 45.722656 97.246094 45.644531 97.445312 45.714844 L 102.597656 47.5 L 105.40625 39.425781 L 100.253906 37.644531 C 100.054688 37.578125 99.929688 37.382812 99.953125 37.171875 C 100.171875 35.042969 100.042969 32.902344 99.574219 30.804688 C 99.527344 30.601562 99.628906 30.390625 99.820312 30.296875 L 104.726562 27.925781 L 100.988281 20.238281 L 96.082031 22.613281 C 95.890625 22.703125 95.664062 22.652344 95.53125 22.488281 C 94.171875 20.828125 92.566406 19.402344 90.753906 18.253906 C 90.578125 18.140625 90.5 17.921875 90.566406 17.722656 L 92.355469 12.585938 L 84.257812 9.785156 L 82.472656 14.921875 C 82.402344 15.121094 82.207031 15.238281 82 15.222656 C 79.863281 15.007812 77.714844 15.132812 75.613281 15.597656 C 75.410156 15.644531 75.199219 15.546875 75.109375 15.355469 L 72.726562 10.464844 L 65.019531 14.1875 L 67.394531 19.082031 C 67.488281 19.269531 67.4375 19.5 67.273438 19.632812 C 65.605469 20.988281 64.175781 22.589844 63.023438 24.398438 C 62.914062 24.566406 62.703125 24.644531 62.511719 24.585938 L 57.097656 22.960938 L 54.523438 30.867188 L 59.683594 32.652344 C 59.882812 32.722656 60.007812 32.914062 59.988281 33.125 C 59.765625 35.253906 59.894531 37.398438 60.363281 39.492188 C 60.410156 39.695312 60.308594 39.90625 60.117188 39.996094 L 55.210938 42.371094 L 58.949219 50.054688 L 63.859375 47.683594 C 64.046875 47.589844 64.273438 47.640625 64.40625 47.804688 C 65.765625 49.46875 67.371094 50.894531 69.183594 52.042969 C 69.363281 52.15625 69.441406 52.375 69.371094 52.574219 Z M 75.957031 61.539062 C 75.910156 61.539062 75.859375 61.53125 75.808594 61.511719 L 66.859375 58.417969 C 66.746094 58.375 66.652344 58.292969 66.601562 58.1875 C 66.546875 58.078125 66.539062 57.953125 66.582031 57.839844 L 68.398438 52.613281 C 66.726562 51.515625 65.226562 50.183594 63.933594 48.652344 L 58.9375 51.066406 C 58.710938 51.175781 58.441406 51.082031 58.332031 50.859375 L 54.199219 42.355469 C 54.148438 42.25 54.140625 42.125 54.179688 42.011719 C 54.21875 41.898438 54.300781 41.804688 54.410156 41.75 L 59.40625 39.335938 C 59 37.378906 58.882812 35.378906 59.050781 33.390625 L 53.808594 31.574219 C 53.578125 31.496094 53.453125 31.242188 53.527344 31.007812 L 56.375 22.265625 C 56.453125 22.03125 56.699219 21.902344 56.9375 21.972656 L 62.445312 23.625 C 63.550781 21.949219 64.886719 20.449219 66.425781 19.160156 L 64.003906 14.175781 C 63.953125 14.066406 63.945312 13.945312 63.984375 13.832031 C 64.023438 13.71875 64.105469 13.625 64.214844 13.570312 L 72.742188 9.449219 C 72.964844 9.34375 73.234375 9.4375 73.34375 9.660156 L 75.765625 14.640625 C 77.734375 14.238281 79.738281 14.121094 81.734375 14.292969 L 83.554688 9.0625 C 83.636719 8.828125 83.890625 8.703125 84.128906 8.785156 L 93.078125 11.878906 C 93.191406 11.917969 93.285156 12 93.339844 12.109375 C 93.390625 12.21875 93.398438 12.339844 93.359375 12.457031 L 91.539062 17.683594 C 93.210938 18.785156 94.710938 20.113281 96.003906 21.644531 L 101 19.226562 C 101.226562 19.121094 101.496094 19.214844 101.605469 19.4375 L 105.738281 27.9375 C 105.792969 28.046875 105.796875 28.171875 105.757812 28.285156 C 105.71875 28.398438 105.636719 28.492188 105.527344 28.542969 L 100.53125 30.960938 C 100.9375 32.921875 101.054688 34.917969 100.886719 36.90625 L 106.128906 38.71875 C 106.242188 38.757812 106.335938 38.84375 106.386719 38.949219 C 106.441406 39.058594 106.449219 39.183594 106.410156 39.296875 L 103.304688 48.21875 C 103.222656 48.457031 102.964844 48.582031 102.726562 48.5 L 97.484375 46.683594 C 96.378906 48.351562 95.046875 49.847656 93.511719 51.140625 L 95.933594 56.117188 C 95.984375 56.226562 95.992188 56.351562 95.953125 56.464844 C 95.914062 56.578125 95.832031 56.671875 95.722656 56.722656 L 87.199219 60.84375 C 86.972656 60.953125 86.703125 60.859375 86.59375 60.636719 L 84.171875 55.652344 C 82.203125 56.058594 80.199219 56.175781 78.203125 56.003906 L 76.386719 61.234375 C 76.320312 61.421875 76.144531 61.539062 75.957031 61.539062 " fill-opacity="1" fill-rule="nonzero"/></svg>