<svg xmlns="http://www.w3.org/2000/svg" xmlns:xlink="http://www.w3.org/1999/xlink" width="500" zoomAndPan="magnify" viewBox="0 0 375 374.999991" height="500" preserveAspectRatio="xMidYMid meet" version="1.0"><defs><clipPath id="b0403d712d"><path d="M 75.632812 243 L 187 243 L 187 356 L 75.632812 356 Z M 75.632812 243 " clip-rule="nonzero"/></clipPath><clipPath id="4407117b9c"><path d="M 75.632812 130 L 187 130 L 187 244 L 75.632812 244 Z M 75.632812 130 " clip-rule="nonzero"/></clipPath><clipPath id="d188996d46"><path d="M 75.632812 18 L 187 18 L 187 131 L 75.632812 131 Z M 75.632812 18 " clip-rule="nonzero"/></clipPath><clipPath id="6f4ff39773"><path d="M 186 18 L 299.132812 18 L 299.132812 131 L 186 131 Z M 186 18 " clip-rule="nonzero"/></clipPath><clipPath id="9bca688c17"><path d="M 186 130 L 299.132812 130 L 299.132812 244 L 186 244 Z M 186 130 " clip-rule="nonzero"/></clipPath></defs><g clip-path="url(#b0403d712d)"><path fill="#0acf83" d="M 130.851562 355.554688 C 132.691406 355.554688 134.523438 355.464844 136.351562 355.285156 C 138.179688 355.101562 139.992188 354.832031 141.796875 354.476562 C 143.597656 354.117188 145.378906 353.667969 147.136719 353.136719 C 148.894531 352.601562 150.621094 351.984375 152.320312 351.277344 C 154.015625 350.574219 155.675781 349.789062 157.292969 348.921875 C 158.914062 348.054688 160.488281 347.113281 162.015625 346.089844 C 163.542969 345.066406 165.019531 343.972656 166.4375 342.808594 C 167.859375 341.640625 169.21875 340.40625 170.515625 339.105469 C 171.816406 337.804688 173.046875 336.445312 174.214844 335.023438 C 175.378906 333.601562 176.472656 332.125 177.492188 330.597656 C 178.511719 329.066406 179.457031 327.492188 180.324219 325.867188 C 181.1875 324.246094 181.972656 322.585938 182.675781 320.886719 C 183.378906 319.1875 183.996094 317.457031 184.53125 315.699219 C 185.0625 313.9375 185.511719 312.15625 185.867188 310.351562 C 186.226562 308.546875 186.496094 306.730469 186.675781 304.902344 C 186.855469 303.070312 186.945312 301.234375 186.945312 299.398438 L 186.945312 243.238281 L 130.851562 243.238281 C 129.015625 243.238281 127.183594 243.328125 125.355469 243.507812 C 123.527344 243.691406 121.710938 243.960938 119.910156 244.316406 C 118.105469 244.675781 116.328125 245.125 114.570312 245.65625 C 112.8125 246.191406 111.082031 246.808594 109.386719 247.515625 C 107.6875 248.21875 106.03125 249.003906 104.410156 249.871094 C 102.789062 250.738281 101.214844 251.679688 99.6875 252.703125 C 98.160156 253.726562 96.6875 254.820312 95.265625 255.988281 C 93.847656 257.152344 92.488281 258.386719 91.1875 259.6875 C 89.890625 260.988281 88.65625 262.347656 87.492188 263.769531 C 86.324219 265.191406 85.234375 266.667969 84.210938 268.195312 C 83.191406 269.726562 82.246094 271.300781 81.382812 272.925781 C 80.515625 274.546875 79.730469 276.207031 79.027344 277.90625 C 78.324219 279.605469 77.707031 281.335938 77.171875 283.09375 C 76.640625 284.855469 76.195312 286.636719 75.835938 288.441406 C 75.476562 290.246094 75.207031 292.0625 75.027344 293.890625 C 74.847656 295.722656 74.757812 297.558594 74.757812 299.398438 C 74.757812 301.234375 74.847656 303.070312 75.027344 304.902344 C 75.207031 306.730469 75.476562 308.546875 75.835938 310.351562 C 76.195312 312.15625 76.640625 313.9375 77.171875 315.699219 C 77.707031 317.457031 78.324219 319.1875 79.027344 320.886719 C 79.730469 322.585938 80.515625 324.246094 81.382812 325.867188 C 82.246094 327.492188 83.191406 329.066406 84.210938 330.597656 C 85.234375 332.125 86.324219 333.601562 87.492188 335.023438 C 88.65625 336.445312 89.890625 337.804688 91.1875 339.105469 C 92.488281 340.40625 93.847656 341.640625 95.265625 342.808594 C 96.6875 343.972656 98.160156 345.066406 99.6875 346.089844 C 101.214844 347.113281 102.789062 348.054688 104.410156 348.921875 C 106.03125 349.789062 107.6875 350.574219 109.386719 351.277344 C 111.082031 351.984375 112.8125 352.601562 114.570312 353.136719 C 116.328125 353.667969 118.105469 354.117188 119.910156 354.476562 C 121.710938 354.832031 123.527344 355.101562 125.355469 355.285156 C 127.183594 355.464844 129.015625 355.554688 130.851562 355.554688 Z M 130.851562 355.554688 " fill-opacity="1" fill-rule="nonzero"/></g><g clip-path="url(#4407117b9c)"><path fill="#a259ff" d="M 74.757812 187.082031 C 74.757812 185.242188 74.847656 183.40625 75.027344 181.578125 C 75.207031 179.746094 75.476562 177.929688 75.835938 176.125 C 76.195312 174.320312 76.640625 172.539062 77.171875 170.78125 C 77.707031 169.019531 78.324219 167.289062 79.027344 165.589844 C 79.730469 163.890625 80.515625 162.230469 81.382812 160.609375 C 82.246094 158.988281 83.191406 157.410156 84.210938 155.882812 C 85.234375 154.351562 86.324219 152.878906 87.492188 151.457031 C 88.65625 150.035156 89.890625 148.671875 91.1875 147.371094 C 92.488281 146.070312 93.847656 144.839844 95.265625 143.671875 C 96.6875 142.503906 98.160156 141.410156 99.6875 140.390625 C 101.214844 139.367188 102.789062 138.421875 104.410156 137.554688 C 106.03125 136.6875 107.6875 135.902344 109.386719 135.199219 C 111.082031 134.496094 112.8125 133.875 114.570312 133.34375 C 116.328125 132.808594 118.105469 132.363281 119.910156 132.003906 C 121.710938 131.644531 123.527344 131.375 125.355469 131.195312 C 127.183594 131.015625 129.015625 130.925781 130.851562 130.925781 L 186.945312 130.925781 L 186.945312 243.238281 L 130.851562 243.238281 C 129.015625 243.238281 127.183594 243.148438 125.355469 242.96875 C 123.527344 242.789062 121.710938 242.519531 119.910156 242.160156 C 118.105469 241.800781 116.328125 241.355469 114.570312 240.820312 C 112.8125 240.289062 111.082031 239.667969 109.386719 238.964844 C 107.6875 238.261719 106.03125 237.476562 104.410156 236.609375 C 102.789062 235.742188 101.214844 234.796875 99.6875 233.773438 C 98.160156 232.753906 96.6875 231.660156 95.265625 230.492188 C 93.847656 229.324219 92.488281 228.089844 91.1875 226.792969 C 89.890625 225.492188 88.65625 224.128906 87.492188 222.707031 C 86.324219 221.285156 85.234375 219.808594 84.210938 218.28125 C 83.191406 216.75 82.246094 215.175781 81.382812 213.554688 C 80.515625 211.933594 79.730469 210.273438 79.027344 208.574219 C 78.324219 206.875 77.707031 205.144531 77.171875 203.382812 C 76.640625 201.625 76.195312 199.839844 75.835938 198.039062 C 75.476562 196.234375 75.207031 194.417969 75.027344 192.585938 C 74.847656 190.753906 74.757812 188.921875 74.757812 187.082031 Z M 74.757812 187.082031 " fill-opacity="1" fill-rule="nonzero"/></g><g clip-path="url(#d188996d46)"><path fill="#f24e1e" d="M 74.757812 74.765625 C 74.757812 72.929688 74.847656 71.09375 75.027344 69.265625 C 75.207031 67.4375 75.476562 65.621094 75.835938 63.816406 C 76.191406 62.015625 76.636719 60.234375 77.171875 58.472656 C 77.703125 56.714844 78.320312 54.984375 79.023438 53.285156 C 79.726562 51.589844 80.511719 49.929688 81.375 48.308594 C 82.242188 46.683594 83.183594 45.109375 84.203125 43.582031 C 85.222656 42.050781 86.3125 40.578125 87.480469 39.15625 C 88.644531 37.734375 89.875 36.375 91.171875 35.074219 C 92.46875 33.773438 93.828125 32.539062 95.246094 31.371094 C 96.667969 30.207031 98.140625 29.109375 99.664062 28.089844 C 101.191406 27.066406 102.765625 26.121094 104.382812 25.253906 C 106.003906 24.386719 107.660156 23.601562 109.355469 22.898438 C 111.050781 22.191406 112.777344 21.574219 114.535156 21.039062 C 116.292969 20.503906 118.070312 20.054688 119.871094 19.695312 C 121.671875 19.335938 123.484375 19.066406 125.3125 18.882812 C 127.140625 18.703125 128.972656 18.609375 130.808594 18.609375 L 186.902344 18.609375 L 186.902344 130.925781 L 130.851562 130.925781 C 129.015625 130.925781 127.183594 130.835938 125.355469 130.652344 C 123.527344 130.472656 121.710938 130.203125 119.910156 129.84375 C 118.105469 129.488281 116.328125 129.039062 114.570312 128.507812 C 112.8125 127.972656 111.082031 127.355469 109.386719 126.648438 C 107.6875 125.945312 106.03125 125.160156 104.410156 124.292969 C 102.789062 123.425781 101.214844 122.480469 99.6875 121.460938 C 98.160156 120.4375 96.6875 119.34375 95.265625 118.175781 C 93.847656 117.011719 92.488281 115.777344 91.1875 114.476562 C 89.890625 113.175781 88.65625 111.816406 87.492188 110.394531 C 86.324219 108.972656 85.234375 107.496094 84.210938 105.964844 C 83.191406 104.4375 82.246094 102.863281 81.382812 101.238281 C 80.515625 99.617188 79.730469 97.957031 79.027344 96.257812 C 78.324219 94.558594 77.707031 92.828125 77.171875 91.070312 C 76.640625 89.308594 76.195312 87.527344 75.835938 85.722656 C 75.476562 83.917969 75.207031 82.101562 75.027344 80.269531 C 74.847656 78.441406 74.757812 76.605469 74.757812 74.765625 Z M 74.757812 74.765625 " fill-opacity="1" fill-rule="nonzero"/></g><g clip-path="url(#6f4ff39773)"><path fill="#ff7262" d="M 186.945312 18.609375 L 243.039062 18.609375 C 244.878906 18.609375 246.710938 18.699219 248.539062 18.878906 C 250.367188 19.058594 252.183594 19.328125 253.984375 19.6875 C 255.785156 20.046875 257.566406 20.492188 259.324219 21.027344 C 261.082031 21.5625 262.808594 22.179688 264.507812 22.882812 C 266.203125 23.589844 267.863281 24.375 269.484375 25.242188 C 271.101562 26.109375 272.675781 27.050781 274.203125 28.074219 C 275.730469 29.097656 277.207031 30.191406 278.625 31.355469 C 280.046875 32.523438 281.40625 33.757812 282.703125 35.058594 C 284.003906 36.359375 285.238281 37.71875 286.402344 39.140625 C 287.566406 40.5625 288.660156 42.039062 289.679688 43.566406 C 290.703125 45.097656 291.644531 46.671875 292.511719 48.292969 C 293.378906 49.917969 294.160156 51.578125 294.863281 53.277344 C 295.566406 54.976562 296.1875 56.707031 296.71875 58.464844 C 297.253906 60.226562 297.699219 62.007812 298.058594 63.8125 C 298.414062 65.613281 298.683594 67.433594 298.863281 69.261719 C 299.042969 71.09375 299.132812 72.929688 299.132812 74.765625 C 299.132812 76.605469 299.042969 78.441406 298.863281 80.269531 C 298.683594 82.101562 298.414062 83.917969 298.058594 85.722656 C 297.699219 87.527344 297.253906 89.308594 296.71875 91.070312 C 296.1875 92.828125 295.566406 94.558594 294.863281 96.257812 C 294.160156 97.957031 293.378906 99.617188 292.511719 101.238281 C 291.644531 102.863281 290.703125 104.4375 289.679688 105.964844 C 288.660156 107.496094 287.566406 108.972656 286.402344 110.394531 C 285.238281 111.816406 284.003906 113.175781 282.703125 114.476562 C 281.40625 115.777344 280.046875 117.011719 278.625 118.175781 C 277.207031 119.34375 275.730469 120.4375 274.203125 121.460938 C 272.675781 122.480469 271.101562 123.425781 269.484375 124.292969 C 267.863281 125.160156 266.203125 125.945312 264.507812 126.648438 C 262.808594 127.355469 261.082031 127.972656 259.324219 128.507812 C 257.566406 129.039062 255.785156 129.488281 253.984375 129.84375 C 252.183594 130.203125 250.367188 130.472656 248.539062 130.652344 C 246.710938 130.835938 244.878906 130.925781 243.039062 130.925781 L 186.945312 130.925781 Z M 186.945312 18.609375 " fill-opacity="1" fill-rule="nonzero"/></g><g clip-path="url(#9bca688c17)"><path fill="#1abcfe" d="M 299.132812 187.082031 C 299.132812 188.921875 299.042969 190.753906 298.863281 192.585938 C 298.683594 194.417969 298.414062 196.234375 298.058594 198.039062 C 297.699219 199.839844 297.253906 201.625 296.71875 203.382812 C 296.1875 205.144531 295.566406 206.875 294.863281 208.574219 C 294.160156 210.273438 293.378906 211.933594 292.511719 213.554688 C 291.644531 215.175781 290.703125 216.75 289.679688 218.28125 C 288.660156 219.808594 287.566406 221.285156 286.402344 222.707031 C 285.238281 224.128906 284.003906 225.492188 282.703125 226.792969 C 281.40625 228.089844 280.046875 229.324219 278.625 230.492188 C 277.207031 231.660156 275.730469 232.753906 274.203125 233.773438 C 272.675781 234.796875 271.101562 235.742188 269.484375 236.609375 C 267.863281 237.476562 266.203125 238.261719 264.507812 238.964844 C 262.808594 239.667969 261.082031 240.289062 259.324219 240.820312 C 257.566406 241.355469 255.785156 241.800781 253.984375 242.160156 C 252.183594 242.519531 250.367188 242.789062 248.539062 242.96875 C 246.710938 243.148438 244.878906 243.238281 243.039062 243.238281 C 241.203125 243.238281 239.371094 243.148438 237.542969 242.96875 C 235.714844 242.789062 233.898438 242.519531 232.097656 242.160156 C 230.296875 241.800781 228.515625 241.355469 226.757812 240.820312 C 225 240.289062 223.273438 239.667969 221.574219 238.964844 C 219.875 238.261719 218.21875 237.476562 216.597656 236.609375 C 214.976562 235.742188 213.402344 234.796875 211.875 233.773438 C 210.347656 232.753906 208.875 231.660156 207.453125 230.492188 C 206.035156 229.324219 204.675781 228.089844 203.375 226.792969 C 202.078125 225.492188 200.84375 224.128906 199.679688 222.707031 C 198.515625 221.285156 197.421875 219.808594 196.398438 218.28125 C 195.378906 216.75 194.4375 215.175781 193.570312 213.554688 C 192.703125 211.933594 191.917969 210.273438 191.214844 208.574219 C 190.511719 206.875 189.894531 205.144531 189.363281 203.382812 C 188.828125 201.625 188.382812 199.839844 188.023438 198.039062 C 187.664062 196.234375 187.398438 194.417969 187.214844 192.585938 C 187.035156 190.753906 186.945312 188.921875 186.945312 187.082031 C 186.945312 185.242188 187.035156 183.40625 187.214844 181.578125 C 187.398438 179.746094 187.664062 177.929688 188.023438 176.125 C 188.382812 174.320312 188.828125 172.539062 189.363281 170.78125 C 189.894531 169.019531 190.511719 167.289062 191.214844 165.589844 C 191.917969 163.890625 192.703125 162.230469 193.570312 160.609375 C 194.4375 158.988281 195.378906 157.410156 196.398438 155.882812 C 197.421875 154.351562 198.515625 152.878906 199.679688 151.457031 C 200.84375 150.035156 202.078125 148.671875 203.375 147.371094 C 204.675781 146.070312 206.035156 144.839844 207.453125 143.671875 C 208.875 142.503906 210.347656 141.410156 211.875 140.390625 C 213.402344 139.367188 214.976562 138.421875 216.597656 137.554688 C 218.21875 136.6875 219.875 135.902344 221.574219 135.199219 C 223.273438 134.496094 225 133.875 226.757812 133.34375 C 228.515625 132.808594 230.296875 132.363281 232.097656 132.003906 C 233.898438 131.644531 235.714844 131.375 237.542969 131.195312 C 239.371094 131.015625 241.203125 130.925781 243.039062 130.925781 C 244.878906 130.925781 246.710938 131.015625 248.539062 131.195312 C 250.367188 131.375 252.183594 131.644531 253.984375 132.003906 C 255.785156 132.363281 257.566406 132.808594 259.324219 133.34375 C 261.082031 133.875 262.808594 134.496094 264.507812 135.199219 C 266.203125 135.902344 267.863281 136.6875 269.484375 137.554688 C 271.101562 138.421875 272.675781 139.367188 274.203125 140.390625 C 275.730469 141.410156 277.207031 142.503906 278.625 143.671875 C 280.046875 144.839844 281.40625 146.070312 282.703125 147.371094 C 284.003906 148.671875 285.238281 150.035156 286.402344 151.457031 C 287.566406 152.878906 288.660156 154.351562 289.679688 155.882812 C 290.703125 157.410156 291.644531 158.988281 292.511719 160.609375 C 293.378906 162.230469 294.160156 163.890625 294.863281 165.589844 C 295.566406 167.289062 296.1875 169.019531 296.71875 170.78125 C 297.253906 172.539062 297.699219 174.320312 298.058594 176.125 C 298.414062 177.929688 298.683594 179.746094 298.863281 181.578125 C 299.042969 183.40625 299.132812 185.242188 299.132812 187.082031 Z M 299.132812 187.082031 " fill-opacity="1" fill-rule="nonzero"/></g></svg>