<svg xmlns="http://www.w3.org/2000/svg" xmlns:xlink="http://www.w3.org/1999/xlink" width="500" zoomAndPan="magnify" viewBox="0 0 375 374.999991" height="500" preserveAspectRatio="xMidYMid meet" version="1.0"><defs><clipPath id="96f25f66c5"><path d="M 22.628906 41 L 352.628906 41 L 352.628906 334 L 22.628906 334 Z M 22.628906 41 " clip-rule="nonzero"/></clipPath></defs><g clip-path="url(#96f25f66c5)"><path fill="#00d8ff" d="M 293.738281 136.015625 C 290.328125 134.839844 286.789062 133.726562 283.136719 132.675781 C 283.742188 130.230469 284.296875 127.820312 284.785156 125.449219 C 292.796875 86.511719 287.5625 55.144531 269.640625 44.820312 C 252.457031 34.917969 224.359375 45.242188 195.980469 69.925781 C 193.253906 72.300781 190.511719 74.8125 187.785156 77.445312 C 185.957031 75.703125 184.144531 74.019531 182.332031 72.410156 C 152.585938 46.015625 122.777344 34.890625 104.875 45.25 C 87.710938 55.179688 82.628906 84.667969 89.851562 121.570312 C 90.550781 125.132812 91.367188 128.773438 92.285156 132.472656 C 88.070312 133.671875 83.996094 134.945312 80.097656 136.304688 C 45.230469 148.453125 22.964844 167.496094 22.964844 187.25 C 22.964844 207.644531 46.867188 228.113281 83.183594 240.519531 C 86.050781 241.5 89.023438 242.425781 92.089844 243.296875 C 91.09375 247.296875 90.230469 251.21875 89.503906 255.050781 C 82.617188 291.308594 87.992188 320.097656 105.113281 329.960938 C 122.792969 340.15625 152.472656 329.679688 181.367188 304.4375 C 183.65625 302.445312 185.945312 300.324219 188.234375 298.113281 C 191.21875 300.964844 194.191406 303.679688 197.136719 306.226562 C 225.128906 330.296875 252.777344 340.015625 269.875 330.128906 C 287.535156 319.90625 293.289062 288.96875 285.824219 251.347656 C 285.261719 248.46875 284.589844 245.535156 283.859375 242.550781 C 285.941406 241.933594 287.988281 241.292969 289.980469 240.636719 C 327.738281 228.125 352.296875 207.925781 352.296875 187.25 C 352.296875 167.425781 329.308594 148.253906 293.738281 136.015625 Z M 285.554688 227.289062 C 283.753906 227.882812 281.902344 228.460938 280.023438 229.011719 C 275.855469 215.832031 270.234375 201.804688 263.339844 187.3125 C 269.914062 173.171875 275.316406 159.328125 279.367188 146.226562 C 282.738281 147.199219 286.007812 148.226562 289.15625 149.3125 C 319.632812 159.796875 338.222656 175.304688 338.222656 187.25 C 338.222656 199.964844 318.15625 216.488281 285.554688 227.289062 Z M 272.023438 254.074219 C 275.328125 270.710938 275.792969 285.753906 273.605469 297.519531 C 271.648438 308.089844 267.699219 315.136719 262.824219 317.953125 C 252.441406 323.957031 230.25 316.152344 206.324219 295.566406 C 203.570312 293.199219 200.804688 290.679688 198.039062 288.019531 C 207.3125 277.875 216.589844 266.082031 225.644531 252.980469 C 241.558594 251.578125 256.597656 249.265625 270.246094 246.113281 C 270.914062 248.828125 271.507812 251.476562 272.023438 254.074219 Z M 135.246094 316.910156 C 125.105469 320.496094 117.03125 320.601562 112.148438 317.785156 C 101.757812 311.792969 97.441406 288.675781 103.332031 257.671875 C 104.007812 254.125 104.808594 250.472656 105.734375 246.746094 C 119.226562 249.726562 134.15625 251.875 150.117188 253.160156 C 159.230469 265.980469 168.777344 277.757812 178.386719 288.070312 C 176.289062 290.101562 174.191406 292.03125 172.109375 293.84375 C 159.332031 305.015625 146.53125 312.9375 135.246094 316.910156 Z M 87.742188 227.210938 C 71.683594 221.722656 58.417969 214.597656 49.328125 206.808594 C 41.160156 199.824219 37.039062 192.882812 37.039062 187.25 C 37.039062 175.265625 54.914062 159.972656 84.734375 149.582031 C 88.351562 148.320312 92.140625 147.132812 96.070312 146.015625 C 100.191406 159.414062 105.597656 173.425781 112.121094 187.585938 C 105.511719 201.960938 100.03125 216.195312 95.867188 229.757812 C 93.066406 228.949219 90.351562 228.101562 87.742188 227.210938 Z M 103.664062 118.867188 C 97.476562 87.253906 101.585938 63.40625 111.929688 57.417969 C 122.945312 51.042969 147.308594 60.132812 172.984375 82.921875 C 174.628906 84.378906 176.277344 85.902344 177.9375 87.480469 C 168.363281 97.75 158.910156 109.441406 149.875 122.183594 C 134.386719 123.617188 119.558594 125.921875 105.929688 129.007812 C 105.070312 125.5625 104.3125 122.179688 103.664062 118.867188 Z M 245.714844 153.929688 C 242.460938 148.304688 239.117188 142.808594 235.707031 137.464844 C 246.21875 138.792969 256.277344 140.558594 265.734375 142.714844 C 262.902344 151.804688 259.363281 161.3125 255.195312 171.0625 C 252.210938 165.390625 249.046875 159.671875 245.714844 153.929688 Z M 187.785156 97.53125 C 194.28125 104.558594 200.78125 112.402344 207.171875 120.914062 C 200.726562 120.613281 194.207031 120.453125 187.632812 120.453125 C 181.121094 120.453125 174.652344 120.609375 168.246094 120.90625 C 174.636719 112.472656 181.199219 104.640625 187.785156 97.53125 Z M 129.484375 154.027344 C 126.230469 159.667969 123.128906 165.351562 120.1875 171.050781 C 116.09375 161.335938 112.585938 151.785156 109.726562 142.5625 C 119.121094 140.464844 129.140625 138.746094 139.582031 137.441406 C 136.125 142.835938 132.75 148.367188 129.484375 154.023438 Z M 139.882812 238.050781 C 129.09375 236.855469 118.925781 235.222656 109.53125 233.179688 C 112.4375 223.792969 116.019531 214.046875 120.207031 204.121094 C 123.152344 209.816406 126.265625 215.5 129.542969 221.15625 C 132.878906 226.917969 136.335938 232.550781 139.882812 238.050781 Z M 188.171875 277.949219 C 181.507812 270.761719 174.855469 262.804688 168.359375 254.253906 C 174.664062 254.496094 181.097656 254.625 187.632812 254.625 C 194.347656 254.625 200.984375 254.472656 207.507812 254.1875 C 201.101562 262.894531 194.617188 270.867188 188.171875 277.949219 Z M 255.324219 203.617188 C 259.726562 213.648438 263.441406 223.34375 266.390625 232.574219 C 256.84375 234.746094 246.527344 236.496094 235.667969 237.808594 C 239.089844 232.394531 242.460938 226.800781 245.78125 221.054688 C 249.136719 215.242188 252.316406 209.417969 255.324219 203.617188 Z M 233.585938 214.035156 C 228.4375 222.957031 223.152344 231.46875 217.785156 239.503906 C 208.023438 240.199219 197.921875 240.558594 187.632812 240.558594 C 177.378906 240.558594 167.410156 240.25 157.8125 239.621094 C 152.226562 231.480469 146.832031 222.945312 141.714844 214.109375 L 141.71875 214.109375 C 136.617188 205.300781 131.921875 196.417969 127.664062 187.585938 C 131.917969 178.738281 136.601562 169.839844 141.675781 161.050781 C 146.757812 152.234375 152.113281 143.734375 157.644531 135.640625 C 167.433594 134.902344 177.480469 134.515625 187.632812 134.515625 C 197.832031 134.515625 207.878906 134.90625 217.671875 135.652344 C 223.125 143.6875 228.4375 152.15625 233.546875 160.972656 C 238.703125 169.890625 243.453125 178.726562 247.734375 187.390625 C 243.464844 196.199219 238.730469 205.121094 233.585938 214.035156 Z M 262.605469 56.996094 C 273.644531 63.355469 277.929688 88.988281 270.996094 122.609375 C 270.558594 124.753906 270.054688 126.9375 269.515625 129.152344 C 255.851562 126 241.019531 123.65625 225.492188 122.199219 C 216.4375 109.320312 207.058594 97.609375 197.640625 87.472656 C 200.175781 85.039062 202.710938 82.71875 205.21875 80.527344 C 229.53125 59.378906 252.261719 51.03125 262.605469 56.996094 Z M 187.632812 157.851562 C 203.867188 157.851562 217.039062 171.007812 217.039062 187.246094 C 217.039062 203.472656 203.867188 216.640625 187.632812 216.640625 C 171.398438 216.640625 158.222656 203.472656 158.222656 187.246094 C 158.222656 171.007812 171.398438 157.851562 187.632812 157.851562 Z M 187.632812 157.851562 " fill-opacity="1" fill-rule="nonzero"/></g></svg>