<svg xmlns="http://www.w3.org/2000/svg" xmlns:xlink="http://www.w3.org/1999/xlink" width="500" zoomAndPan="magnify" viewBox="0 0 375 374.999991" height="500" preserveAspectRatio="xMidYMid meet" version="1.0"><defs><clipPath id="ebfc033fcd"><path d="M 343.113281 215.515625 L 375 215.515625 L 375 244.175781 L 343.113281 244.175781 Z M 343.113281 215.515625 " clip-rule="nonzero"/></clipPath><clipPath id="bfceca7244"><path d="M 90.144531 320.152344 L 113.957031 320.152344 L 113.957031 333.402344 L 90.144531 333.402344 Z M 90.144531 320.152344 " clip-rule="nonzero"/></clipPath></defs><path fill="#eff2fc" d="M 338.078125 115.199219 C 348.65625 107.585938 353.804688 95.738281 349.859375 85.695312 C 344.941406 73.15625 327.730469 68.191406 311.421875 74.601562 C 295.113281 81.011719 285.882812 96.367188 290.804688 108.90625 C 293.167969 114.925781 298.367188 119.195312 304.9375 121.300781 C 303.175781 129.289062 308.195312 138.878906 317.636719 144.335938 C 328.71875 150.738281 341.6875 149.019531 346.605469 140.5 C 351.109375 132.691406 347.28125 121.878906 338.078125 115.199219 " fill-opacity="1" fill-rule="nonzero"/><path fill="#eff2fc" d="M 64.90625 113.847656 C 70.371094 104.375 64.8125 90.933594 52.496094 83.816406 C 40.175781 76.699219 25.765625 78.605469 20.296875 88.074219 C 14.835938 97.546875 20.390625 110.992188 32.710938 118.109375 C 35.625 119.792969 38.652344 120.964844 41.65625 121.65625 C 40.792969 122.09375 39.933594 122.578125 39.101562 123.136719 C 30.492188 128.917969 27.113281 138.96875 31.550781 145.585938 C 35.992188 152.203125 46.566406 152.882812 55.175781 147.101562 C 63.78125 141.320312 67.160156 131.269531 62.722656 124.652344 C 61.445312 122.746094 59.648438 121.351562 57.546875 120.441406 C 60.644531 119.003906 63.207031 116.792969 64.90625 113.847656 " fill-opacity="1" fill-rule="nonzero"/><path fill="#eff2fc" d="M 35.609375 185.800781 C 40.046875 192.417969 36.667969 202.472656 28.0625 208.25 C 19.453125 214.03125 8.875 213.351562 4.4375 206.734375 C 0 200.117188 3.378906 190.066406 11.988281 184.285156 C 20.597656 178.507812 31.171875 179.183594 35.609375 185.800781 " fill-opacity="1" fill-rule="nonzero"/><g clip-path="url(#ebfc033fcd)"><path fill="#eff2fc" d="M 373.285156 239.128906 C 369.335938 245.109375 359.824219 245.789062 352.042969 240.644531 C 344.261719 235.5 341.15625 226.476562 345.105469 220.496094 C 349.058594 214.515625 358.566406 213.835938 366.347656 218.980469 C 374.128906 224.125 377.234375 233.144531 373.285156 239.128906 " fill-opacity="1" fill-rule="nonzero"/></g><path fill="#eff2fc" d="M 288.597656 45.164062 C 293.160156 48.550781 293.289062 56.113281 288.882812 62.054688 C 284.476562 67.996094 277.207031 70.070312 272.644531 66.683594 C 268.082031 63.296875 267.953125 55.734375 272.359375 49.792969 C 276.761719 43.851562 284.03125 41.777344 288.597656 45.164062 " fill-opacity="1" fill-rule="nonzero"/><path fill="#eff2fc" d="M 33.3125 215.21875 C 36.65625 217.695312 36.75 223.238281 33.523438 227.589844 C 30.296875 231.941406 24.972656 233.460938 21.628906 230.980469 C 18.285156 228.5 18.191406 222.960938 21.417969 218.609375 C 24.644531 214.253906 29.96875 212.738281 33.3125 215.21875 " fill-opacity="1" fill-rule="nonzero"/><path fill="#c8d1f3" d="M 136.742188 246.09375 L 134.085938 246.09375 L 134.085938 244.359375 L 136.742188 244.359375 C 138.59375 244.359375 140.101562 242.851562 140.101562 240.996094 L 140.101562 240.917969 L 136.125 240.917969 L 136.125 239.1875 L 141.832031 239.1875 L 141.832031 240.996094 C 141.832031 243.792969 139.585938 246.09375 136.742188 246.09375 " fill-opacity="1" fill-rule="nonzero"/><path fill="#e8ecfa" d="M 138.851562 237.484375 L 138.261719 239.8125 L 137.542969 242.613281 L 135.960938 248.8125 L 128.070312 248.8125 L 126.417969 242.617188 L 125.660156 239.796875 L 125.042969 237.484375 L 138.851562 237.484375 " fill-opacity="1" fill-rule="nonzero"/><path fill="#c8d1f3" d="M 259.730469 246.09375 L 262.386719 246.09375 L 262.386719 244.359375 L 259.730469 244.359375 C 257.878906 244.359375 256.371094 242.851562 256.371094 240.996094 L 256.371094 240.917969 L 260.347656 240.917969 L 260.347656 239.1875 L 254.636719 239.1875 L 254.636719 240.996094 C 254.636719 243.792969 256.886719 246.09375 259.730469 246.09375 " fill-opacity="1" fill-rule="nonzero"/><path fill="#e8ecfa" d="M 257.621094 237.484375 L 258.210938 239.8125 L 258.929688 242.613281 L 260.511719 248.8125 L 268.398438 248.8125 L 270.054688 242.617188 L 270.8125 239.796875 L 271.425781 237.484375 L 257.621094 237.484375 " fill-opacity="1" fill-rule="nonzero"/><path fill="#9fafea" d="M 56.800781 223.402344 L 321.953125 223.402344 L 321.351562 55.890625 L 56.199219 55.890625 L 56.800781 223.402344 " fill-opacity="1" fill-rule="nonzero"/><path fill="#e0e5f8" d="M 63.117188 217.066406 L 62.550781 62.226562 L 315.039062 62.226562 L 315.601562 217.066406 L 63.117188 217.066406 " fill-opacity="1" fill-rule="nonzero"/><path fill="#c8d1f3" d="M 310.015625 109.175781 L 310.015625 112.050781 L 68.132812 112.050781 L 68.132812 109.175781 L 310.015625 109.175781 " fill-opacity="1" fill-rule="nonzero"/><path fill="#c8d1f3" d="M 310.015625 167.242188 L 310.015625 170.117188 L 68.132812 170.117188 L 68.132812 167.242188 L 310.015625 167.242188 " fill-opacity="1" fill-rule="nonzero"/><path fill="#c8d1f3" d="M 146.355469 209.945312 L 143.480469 209.945312 L 143.480469 69.347656 L 146.355469 69.347656 L 146.355469 209.945312 " fill-opacity="1" fill-rule="nonzero"/><path fill="#c8d1f3" d="M 234.671875 209.945312 L 231.800781 209.945312 L 231.800781 69.347656 L 234.671875 69.347656 L 234.671875 209.945312 " fill-opacity="1" fill-rule="nonzero"/><path fill="#fec95c" d="M 223.214844 135.140625 L 223.214844 157.988281 L 200.273438 157.988281 L 200.273438 135.140625 L 223.214844 135.140625 " fill-opacity="1" fill-rule="nonzero"/><path fill="#ffffff" d="M 197.070312 175.421875 L 197.070312 198.273438 L 174.128906 198.273438 L 174.128906 175.421875 L 197.070312 175.421875 " fill-opacity="1" fill-rule="nonzero"/><path fill="#ffffff" d="M 269.703125 186.746094 L 269.703125 209.59375 L 246.761719 209.59375 L 246.761719 186.746094 L 269.703125 186.746094 " fill-opacity="1" fill-rule="nonzero"/><path fill="#fec95c" d="M 139.535156 173.472656 L 139.535156 196.324219 L 116.59375 196.324219 L 116.59375 173.472656 L 139.535156 173.472656 " fill-opacity="1" fill-rule="nonzero"/><path fill="#ffffff" d="M 108.890625 179.320312 L 108.890625 202.167969 L 85.949219 202.167969 L 85.949219 179.320312 L 108.890625 179.320312 " fill-opacity="1" fill-rule="nonzero"/><path fill="#ffffff" d="M 124.230469 77.203125 L 124.230469 100.050781 L 101.289062 100.050781 L 101.289062 77.203125 L 124.230469 77.203125 " fill-opacity="1" fill-rule="nonzero"/><path fill="#1bb26a" d="M 298.507812 179.96875 L 275.390625 179.96875 L 275.390625 203.097656 L 298.507812 203.097656 L 298.507812 179.96875 " fill-opacity="1" fill-rule="nonzero"/><path fill="#fcfdfe" d="M 207.207031 120.167969 L 207.207031 143.019531 L 184.265625 143.019531 L 184.265625 120.167969 L 207.207031 120.167969 " fill-opacity="1" fill-rule="nonzero"/><path fill="#ffffff" d="M 266.539062 72.109375 L 266.539062 94.957031 L 243.597656 94.957031 L 243.597656 72.109375 L 266.539062 72.109375 " fill-opacity="1" fill-rule="nonzero"/><path fill="#1bb26a" d="M 274.324219 80.683594 L 274.324219 103.53125 L 251.386719 103.53125 L 251.386719 80.683594 L 274.324219 80.683594 " fill-opacity="1" fill-rule="nonzero"/><path fill="#fec95c" d="M 280.621094 93.824219 L 280.621094 70.972656 L 303.5625 70.972656 L 303.5625 93.824219 L 280.621094 93.824219 " fill-opacity="1" fill-rule="nonzero"/><path fill="#ff9e22" d="M 289.75 87.820312 L 283.382812 87.820312 L 283.382812 89.40625 L 289.75 89.40625 L 289.75 87.820312 " fill-opacity="1" fill-rule="nonzero"/><path fill="#ff9e22" d="M 289.75 83.339844 L 283.382812 83.339844 L 283.382812 84.929688 L 289.75 84.929688 L 289.75 83.339844 " fill-opacity="1" fill-rule="nonzero"/><path fill="#ff9e22" d="M 300.800781 83.339844 L 292.089844 83.339844 L 292.089844 89.40625 L 300.800781 89.40625 L 300.800781 83.339844 " fill-opacity="1" fill-rule="nonzero"/><path fill="#ff9e22" d="M 296.445312 78.859375 L 283.382812 78.859375 L 283.382812 80.449219 L 296.445312 80.449219 L 296.445312 78.859375 " fill-opacity="1" fill-rule="nonzero"/><path fill="#ff9e22" d="M 300.800781 74.382812 L 283.382812 74.382812 L 283.382812 75.96875 L 300.800781 75.96875 L 300.800781 74.382812 " fill-opacity="1" fill-rule="nonzero"/><path fill="#fc8f8b" d="M 204.742188 206.289062 L 204.742188 183.441406 L 227.683594 183.441406 L 227.683594 206.289062 L 204.742188 206.289062 " fill-opacity="1" fill-rule="nonzero"/><path fill="#fa4a56" d="M 213.871094 200.285156 L 207.503906 200.285156 L 207.503906 201.875 L 213.871094 201.875 L 213.871094 200.285156 " fill-opacity="1" fill-rule="nonzero"/><path fill="#fa4a56" d="M 213.871094 195.808594 L 207.503906 195.808594 L 207.503906 197.394531 L 213.871094 197.394531 L 213.871094 195.808594 " fill-opacity="1" fill-rule="nonzero"/><path fill="#fa4a56" d="M 224.921875 195.808594 L 216.214844 195.808594 L 216.214844 201.875 L 224.921875 201.875 L 224.921875 195.808594 " fill-opacity="1" fill-rule="nonzero"/><path fill="#fa4a56" d="M 220.566406 191.328125 L 207.503906 191.328125 L 207.503906 192.917969 L 220.566406 192.917969 L 220.566406 191.328125 " fill-opacity="1" fill-rule="nonzero"/><path fill="#fa4a56" d="M 224.921875 186.847656 L 207.503906 186.847656 L 207.503906 188.4375 L 224.921875 188.4375 L 224.921875 186.847656 " fill-opacity="1" fill-rule="nonzero"/><path fill="#1bb26a" d="M 161.980469 136.277344 L 154.9375 143.324219 L 154.9375 159.125 L 177.878906 159.125 L 177.878906 136.277344 L 161.980469 136.277344 " fill-opacity="1" fill-rule="nonzero"/><path fill="#009250" d="M 161.980469 143.269531 L 161.980469 136.222656 L 154.9375 143.269531 Z M 161.980469 143.269531 " fill-opacity="1" fill-rule="nonzero"/><path fill="#fec95c" d="M 96.046875 72.75 L 96.046875 95.597656 L 73.105469 95.597656 L 73.105469 72.75 L 96.046875 72.75 " fill-opacity="1" fill-rule="nonzero"/><path fill="#fc8f8b" d="M 73.238281 148.488281 L 96.074219 148.488281 L 96.074219 125.53125 L 73.238281 125.53125 L 73.238281 148.488281 " fill-opacity="1" fill-rule="nonzero"/><path fill="#fec95c" d="M 254.566406 120.386719 L 247.523438 127.433594 L 247.523438 143.238281 L 270.464844 143.238281 L 270.464844 120.386719 L 254.566406 120.386719 " fill-opacity="1" fill-rule="nonzero"/><path fill="#ff9e22" d="M 254.566406 127.378906 L 254.566406 120.332031 L 247.523438 127.378906 Z M 254.566406 127.378906 " fill-opacity="1" fill-rule="nonzero"/><path fill="#fec95c" d="M 121.730469 66.894531 L 114.6875 73.945312 L 114.6875 89.746094 L 137.628906 89.746094 L 137.628906 66.894531 L 121.730469 66.894531 " fill-opacity="1" fill-rule="nonzero"/><path fill="#ff9e22" d="M 121.730469 73.890625 L 121.730469 66.84375 L 114.6875 73.890625 Z M 121.730469 73.890625 " fill-opacity="1" fill-rule="nonzero"/><path fill="#fec95c" d="M 240.800781 191.175781 L 247.84375 198.222656 L 263.636719 198.222656 L 263.636719 175.265625 L 240.800781 175.265625 L 240.800781 191.175781 " fill-opacity="1" fill-rule="nonzero"/><path fill="#ff9e22" d="M 247.792969 191.175781 L 240.746094 191.175781 L 247.792969 198.222656 Z M 247.792969 191.175781 " fill-opacity="1" fill-rule="nonzero"/><path fill="#fc8f8b" d="M 154.054688 73.085938 L 154.054688 95.933594 L 176.996094 95.933594 L 176.996094 73.085938 L 154.054688 73.085938 " fill-opacity="1" fill-rule="nonzero"/><path fill="#fa4a56" d="M 165.878906 79.085938 L 156.816406 79.085938 L 156.816406 77.5 L 165.878906 77.5 L 165.878906 79.085938 " fill-opacity="1" fill-rule="nonzero"/><path fill="#fa4a56" d="M 165.878906 83.566406 L 156.816406 83.566406 L 156.816406 81.980469 L 165.878906 81.980469 L 165.878906 83.566406 " fill-opacity="1" fill-rule="nonzero"/><path fill="#fa4a56" d="M 171.300781 83.566406 C 169.675781 83.566406 168.363281 82.253906 168.363281 80.628906 L 168.363281 80.441406 C 168.363281 78.816406 169.675781 77.5 171.300781 77.5 C 172.921875 77.5 174.234375 78.816406 174.234375 80.441406 L 174.234375 80.628906 C 174.234375 82.253906 172.921875 83.566406 171.300781 83.566406 " fill-opacity="1" fill-rule="nonzero"/><path fill="#fa4a56" d="M 174.234375 88.046875 L 156.816406 88.046875 L 156.816406 86.457031 L 174.234375 86.457031 L 174.234375 88.046875 " fill-opacity="1" fill-rule="nonzero"/><path fill="#fa4a56" d="M 174.234375 92.527344 L 156.816406 92.527344 L 156.816406 90.9375 L 174.234375 90.9375 L 174.234375 92.527344 " fill-opacity="1" fill-rule="nonzero"/><path fill="#fec95c" d="M 211.558594 71.375 L 218.605469 78.425781 L 218.605469 94.222656 L 195.660156 94.222656 L 195.660156 71.375 L 211.558594 71.375 " fill-opacity="1" fill-rule="nonzero"/><path fill="#ff9e22" d="M 211.558594 78.371094 L 211.558594 71.324219 L 218.605469 78.371094 Z M 211.558594 78.371094 " fill-opacity="1" fill-rule="nonzero"/><path fill="#1bb26a" d="M 181.589844 96.957031 L 188.632812 104.003906 L 204.421875 104.003906 L 204.421875 81.046875 L 181.589844 81.046875 L 181.589844 96.957031 " fill-opacity="1" fill-rule="nonzero"/><path fill="#009250" d="M 188.578125 96.957031 L 181.535156 96.957031 L 188.578125 104.003906 Z M 188.578125 96.957031 " fill-opacity="1" fill-rule="nonzero"/><path fill="#1bb26a" d="M 123.929688 120.195312 L 130.972656 127.242188 L 130.972656 143.046875 L 108.03125 143.046875 L 108.03125 120.195312 L 123.929688 120.195312 " fill-opacity="1" fill-rule="nonzero"/><path fill="#009250" d="M 123.929688 127.191406 L 123.929688 120.140625 L 130.972656 127.191406 Z M 123.929688 127.191406 " fill-opacity="1" fill-rule="nonzero"/><path fill="#ffffff" d="M 113.085938 134.535156 L 113.085938 157.386719 L 90.144531 157.386719 L 90.144531 134.535156 L 113.085938 134.535156 " fill-opacity="1" fill-rule="nonzero"/><path fill="#fcfdfe" d="M 262.792969 159.90625 L 262.792969 136.851562 L 239.675781 136.851562 L 239.675781 159.90625 L 262.792969 159.90625 " fill-opacity="1" fill-rule="nonzero"/><path fill="#fc8f8b" d="M 297.269531 128.800781 L 297.269531 151.652344 L 274.324219 151.652344 L 274.324219 128.800781 L 297.269531 128.800781 " fill-opacity="1" fill-rule="nonzero"/><path fill="#fa4a56" d="M 288.980469 141.816406 L 282.613281 141.816406 L 282.613281 143.402344 L 288.980469 143.402344 L 288.980469 141.816406 " fill-opacity="1" fill-rule="nonzero"/><path fill="#fa4a56" d="M 292.195312 146.578125 L 279.398438 146.578125 L 279.398438 148.167969 L 292.195312 148.167969 L 292.195312 146.578125 " fill-opacity="1" fill-rule="nonzero"/><path fill="#fa4a56" d="M 292.328125 137.050781 L 279.265625 137.050781 L 279.265625 138.640625 L 292.328125 138.640625 L 292.328125 137.050781 " fill-opacity="1" fill-rule="nonzero"/><path fill="#fa4a56" d="M 294.507812 132.285156 L 277.089844 132.285156 L 277.089844 133.875 L 294.507812 133.875 L 294.507812 132.285156 " fill-opacity="1" fill-rule="nonzero"/><path fill="#ff9e22" d="M 333.867188 197.289062 L 320.261719 208.734375 L 326.402344 215.25 C 326.402344 215.25 347.164062 204.210938 348.210938 199.496094 C 349.261719 194.78125 332.351562 172.347656 332.351562 172.347656 L 321.914062 189.453125 C 327.40625 193.101562 333.867188 197.289062 333.867188 197.289062 " fill-opacity="1" fill-rule="nonzero"/><path fill="#f49d64" d="M 339.234375 303.847656 L 345.007812 313.632812 L 350.300781 316.847656 L 351.789062 310.878906 L 347.171875 300.089844 L 339.234375 303.847656 " fill-opacity="1" fill-rule="nonzero"/><path fill="#0031a4" d="M 351.21875 305 C 351.21875 305 349.6875 307.148438 346.742188 308.824219 C 346.222656 309.144531 345.664062 309.421875 345.066406 309.683594 C 343.425781 310.390625 341.484375 310.875 339.230469 310.875 C 339.230469 310.875 320.773438 279.332031 316.261719 266.628906 C 311.714844 253.90625 304.722656 221.539062 304.722656 221.539062 L 306.476562 220.328125 L 320.585938 210.441406 C 326.40625 209.339844 331.101562 202.25 332.875 208.3125 C 332.875 208.3125 335.277344 223.796875 335.257812 226.316406 L 334.683594 261.871094 L 351.21875 305 " fill-opacity="1" fill-rule="nonzero"/><path fill="#20158a" d="M 346.742188 308.824219 C 346.222656 309.144531 345.664062 309.421875 345.066406 309.683594 C 339.433594 297.054688 327.875 270.898438 324.800781 262.675781 C 321.148438 252.898438 317.417969 226.371094 317.417969 218.554688 C 317.417969 217.136719 319.261719 217.285156 319.261719 218.332031 C 319.226562 225.773438 323.066406 252.710938 326.535156 262.019531 C 329.609375 270.171875 341.09375 296.15625 346.742188 308.824219 " fill-opacity="1" fill-rule="nonzero"/><path fill="#20158a" d="M 345.007812 313.632812 C 343.363281 319.15625 343.769531 325.675781 340.355469 327.117188 C 337.808594 328.191406 337.03125 329.6875 337.628906 330.464844 L 342.855469 330.464844 C 344.09375 330.464844 345.316406 330.128906 346.359375 329.457031 C 351.734375 325.980469 356.257812 319.09375 355.785156 316.222656 C 355.105469 312.117188 351.789062 310.878906 351.789062 310.878906 C 349.65625 314.890625 345.007812 313.632812 345.007812 313.632812 " fill-opacity="1" fill-rule="nonzero"/><path fill="#f49d64" d="M 308.273438 307.574219 L 309.109375 319.0625 L 312.464844 324.367188 L 316.503906 319.617188 L 317.175781 307.746094 L 308.273438 307.574219 " fill-opacity="1" fill-rule="nonzero"/><path fill="#0c61ea" d="M 335.089844 228.929688 L 322.730469 264.296875 L 318.945312 314.125 C 318.945312 314.125 313.113281 317.984375 306.71875 314.703125 C 306.71875 314.703125 301.160156 275.957031 301.5 262.300781 C 301.535156 260.996094 301.574219 259.539062 301.648438 257.953125 C 302.261719 244.730469 304.238281 223.179688 304.703125 218.164062 C 304.757812 217.472656 304.796875 217.101562 304.796875 217.101562 L 322.453125 207.699219 C 324.074219 207.996094 326.085938 208.875 328.15625 209.992188 C 334.886719 213.648438 337.851562 221.765625 335.089844 228.929688 " fill-opacity="1" fill-rule="nonzero"/><path fill="#0244d5" d="M 314.113281 316.179688 C 313.535156 316.234375 312.910156 316.242188 312.242188 316.164062 C 311.699219 302.679688 310.601562 273.09375 310.789062 264.140625 C 311.019531 253.699219 317.378906 227.691406 320.285156 220.425781 C 320.8125 219.113281 322.464844 219.941406 322.078125 220.894531 C 319.289062 227.804688 312.875 254.238281 312.65625 264.171875 C 312.472656 273.109375 313.578125 302.75 314.113281 316.179688 " fill-opacity="1" fill-rule="nonzero"/><path fill="#0244d5" d="M 322.488281 230.101562 C 320.902344 231.464844 319.339844 232.191406 317.996094 232.601562 C 315.835938 233.199219 314.117188 234.859375 313.335938 236.949219 C 312.738281 238.609375 311.65625 240.492188 309.71875 242.042969 C 309.289062 242.394531 308.878906 242.730469 308.488281 243.050781 C 305.523438 245.492188 303.585938 248.90625 302.953125 252.675781 C 302.671875 254.371094 302.226562 256.015625 301.738281 257.65625 L 301.648438 257.953125 C 302.261719 244.730469 304.238281 223.179688 304.703125 218.164062 L 317.121094 218.332031 C 320.324219 218.367188 323.160156 219.675781 325.230469 221.765625 C 325.34375 224.488281 324.96875 228.011719 322.488281 230.101562 " fill-opacity="1" fill-rule="nonzero"/><path fill="#20158a" d="M 309.109375 319.0625 C 302.621094 326.019531 293.007812 325.300781 293.007812 327.878906 C 293.007812 329.800781 297.234375 330.414062 299.320312 330.515625 C 303.578125 330.730469 310.371094 330.632812 314.371094 330.546875 C 316.453125 330.5 318.070312 328.730469 317.941406 326.652344 C 317.722656 323.164062 316.503906 319.617188 316.503906 319.617188 C 312.761719 322.300781 309.109375 319.0625 309.109375 319.0625 " fill-opacity="1" fill-rule="nonzero"/><path fill="#f49d64" d="M 249.742188 211.988281 C 250.890625 211.5 253.414062 210.546875 254.691406 209.28125 C 254.945312 209.027344 255.15625 208.738281 255.347656 208.4375 C 253.546875 208.074219 251.695312 207.476562 251.660156 206.535156 C 251.589844 204.6875 258.550781 205.589844 258.550781 205.589844 C 260.304688 205.683594 262.117188 206.503906 262.117188 206.503906 C 263.605469 206.5625 282.019531 201.128906 282.019531 201.128906 L 283.167969 209.996094 L 268 211.1875 C 267.097656 211.339844 266.25 211.714844 265.511719 212.277344 C 264.464844 213.105469 263.367188 213.988281 262.175781 214.644531 C 262.1875 214.652344 255.710938 218.148438 252.910156 216.867188 C 252.023438 216.460938 250.578125 215.347656 249.394531 214.371094 C 248.578125 213.695312 248.769531 212.398438 249.742188 211.988281 " fill-opacity="1" fill-rule="nonzero"/><path fill="#f49d64" d="M 325.246094 148.160156 C 323.9375 141 317.53125 136.175781 310.9375 137.382812 C 304.34375 138.589844 300.058594 145.371094 301.363281 152.527344 C 302.351562 157.9375 301.871094 164.816406 310.953125 163.15625 L 315.480469 172.726562 L 325.574219 170.882812 L 320.949219 160.796875 C 324.351562 157.933594 326.15625 153.140625 325.246094 148.160156 " fill-opacity="1" fill-rule="nonzero"/><path fill="#fec95c" d="M 335.277344 229.414062 C 323.125 234.320312 311.171875 231.148438 304.796875 228.609375 C 304.015625 228.3125 303.324219 228.011719 302.726562 227.734375 C 301.199219 227.042969 300.359375 225.363281 300.789062 223.761719 C 303.976562 211.464844 303.363281 197.214844 302.464844 195.925781 C 302.464844 195.925781 302.429688 195.984375 302.355469 196.113281 C 301.648438 197.382812 297.210938 205.160156 294.710938 207.007812 C 290.238281 210.328125 272.9375 211.820312 272.9375 211.820312 C 269.320312 208.5 270.121094 203.484375 270.121094 203.484375 C 270.121094 203.484375 284.980469 197.921875 286.378906 196.785156 C 289.605469 194.210938 294.804688 176.097656 299.933594 172.125 C 303.214844 169.585938 306.996094 167.832031 310.984375 166.9375 C 311.265625 166.566406 311.527344 166.230469 311.808594 166.023438 C 314.101562 164.253906 316.933594 163.355469 319.824219 163.488281 L 322.078125 163.582031 C 322.378906 163.597656 322.730469 163.671875 323.105469 163.824219 C 324.296875 164.253906 325.171875 165.148438 325.808594 166.117188 C 326.011719 166.453125 326.179688 166.789062 326.347656 167.144531 C 328.996094 168.207031 330.953125 170.183594 332.351562 172.347656 C 334.738281 176.003906 335.574219 180.425781 335.074219 184.753906 C 334.234375 192.007812 333.878906 200.648438 334.757812 210.292969 C 335.257812 215.980469 336.136719 221.203125 337.160156 225.867188 C 337.496094 227.339844 336.675781 228.832031 335.277344 229.414062 " fill-opacity="1" fill-rule="nonzero"/><path fill="#ff9e22" d="M 310.914062 207.234375 L 308.554688 209.894531 C 306.414062 212.316406 306.246094 215.75 307.726562 218.621094 C 308.292969 219.726562 308.5625 220.894531 308.5625 222.0625 C 308.5625 224.597656 307.296875 227.042969 305.003906 228.480469 L 304.796875 228.609375 C 304.015625 228.3125 303.324219 228.011719 302.726562 227.734375 C 301.199219 227.042969 300.359375 225.363281 300.789062 223.761719 C 303.976562 211.464844 302.464844 195.925781 302.464844 195.925781 L 304.726562 191.535156 L 310.480469 197.511719 C 312.984375 200.175781 313.335938 204.382812 310.96875 207.167969 C 310.949219 207.1875 310.929688 207.210938 310.914062 207.234375 " fill-opacity="1" fill-rule="nonzero"/><path fill="#20158a" d="M 302.355469 144.261719 C 311.726562 144.261719 311.464844 150.492188 311.359375 154.613281 C 311.320312 156.125 317.675781 156.320312 320.949219 160.796875 C 320.949219 160.796875 324.859375 158.476562 326.816406 152.050781 C 328.363281 146.96875 327.933594 140.53125 324.859375 137.710938 C 321.769531 134.882812 311.269531 134.429688 307.539062 133.890625 C 306.167969 133.683594 304.832031 133.300781 303.53125 132.867188 C 300.492188 136.027344 302.355469 144.261719 302.355469 144.261719 " fill-opacity="1" fill-rule="nonzero"/><path fill="#f49d64" d="M 315.199219 154.058594 C 315.503906 155.730469 314.398438 157.335938 312.722656 157.640625 C 311.050781 157.949219 309.449219 156.839844 309.144531 155.164062 C 308.835938 153.492188 309.945312 151.890625 311.617188 151.582031 C 313.289062 151.277344 314.894531 152.386719 315.199219 154.058594 " fill-opacity="1" fill-rule="nonzero"/><path fill="#f49d64" d="M 108.40625 305.628906 L 107.65625 315.539062 L 104.035156 320.90625 L 100.476562 316.421875 L 100.234375 305.507812 L 108.40625 305.628906 " fill-opacity="1" fill-rule="nonzero"/><path fill="#0031a4" d="M 107.65625 315.539062 C 113.53125 322.472656 122.746094 322.222656 122.628906 324.679688 C 122.542969 326.519531 118.476562 326.910156 116.480469 326.914062 C 112.40625 326.925781 105.925781 326.527344 102.109375 326.261719 C 100.125 326.125 98.664062 324.363281 98.878906 322.382812 C 99.246094 319.0625 100.570312 315.734375 100.570312 315.734375 C 104.019531 318.464844 107.65625 315.539062 107.65625 315.539062 " fill-opacity="1" fill-rule="nonzero"/><path fill="#ff7344" d="M 64.90625 258.171875 C 64.90625 258.171875 111.789062 259.414062 114.816406 269.777344 C 117.964844 280.523438 108.851562 308.820312 108.851562 308.820312 C 103.972656 311.957031 99.546875 308.757812 99.546875 308.757812 L 97.175781 279.710938 L 66.515625 277.675781 C 60.269531 275.871094 56.710938 269.800781 59.183594 263.785156 L 64.90625 258.171875 " fill-opacity="1" fill-rule="nonzero"/><path fill="#6875c8" d="M 230.945312 248.523438 L 230.945312 246.773438 L 217.875 246.773438 L 217.875 248.523438 L 230.945312 248.523438 " fill-opacity="1" fill-rule="nonzero"/><path fill="#9fafea" d="M 45.492188 330.644531 L 49.730469 330.644531 L 63.703125 282.546875 L 59.464844 282.546875 L 45.492188 330.644531 " fill-opacity="1" fill-rule="nonzero"/><path fill="#9fafea" d="M 102.546875 330.644531 L 98.304688 330.644531 L 84.332031 282.546875 L 88.574219 282.546875 L 102.546875 330.644531 " fill-opacity="1" fill-rule="nonzero"/><path fill="#c8d1f3" d="M 56.71875 281.65625 L 49.0625 251.773438 C 47.917969 247.304688 43.898438 244.183594 39.289062 244.183594 L 50.167969 288.839844 L 98.921875 288.839844 L 98.136719 281.65625 L 56.71875 281.65625 " fill-opacity="1" fill-rule="nonzero"/><path fill="#9fafea" d="M 314.980469 330.644531 L 310.742188 330.644531 L 296.769531 279.757812 L 301.007812 279.757812 L 314.980469 330.644531 " fill-opacity="1" fill-rule="nonzero"/><path fill="#9fafea" d="M 257.925781 330.644531 L 262.167969 330.644531 L 276.140625 279.757812 L 271.898438 279.757812 L 257.925781 330.644531 " fill-opacity="1" fill-rule="nonzero"/><path fill="#c8d1f3" d="M 303.753906 278.871094 L 311.410156 248.984375 C 312.554688 244.519531 316.574219 241.394531 321.183594 241.394531 L 310.304688 286.054688 L 261.550781 286.054688 L 262.335938 278.871094 L 303.753906 278.871094 " fill-opacity="1" fill-rule="nonzero"/><path fill="#9fafea" d="M 116.550781 330.644531 L 122.703125 330.644531 L 145.753906 251.007812 L 139.605469 251.007812 L 116.550781 330.644531 " fill-opacity="1" fill-rule="nonzero"/><path fill="#9fafea" d="M 254.636719 330.644531 L 248.484375 330.644531 L 225.433594 251.007812 L 231.585938 251.007812 L 254.636719 330.644531 " fill-opacity="1" fill-rule="nonzero"/><path fill="#c8d1f3" d="M 96.914062 248.523438 L 96.914062 252.4375 L 274.273438 252.4375 L 274.273438 248.523438 L 96.914062 248.523438 " fill-opacity="1" fill-rule="nonzero"/><path fill="#009250" d="M 162.066406 239.679688 L 175.738281 247.503906 L 171.414062 254.152344 C 171.414062 254.152344 151.566406 247.820312 149.90625 243.878906 C 148.246094 239.933594 160.246094 218.125 160.246094 218.125 L 171.242188 230.957031 C 167.035156 235.007812 162.066406 239.679688 162.066406 239.679688 " fill-opacity="1" fill-rule="nonzero"/><path fill="#f49d64" d="M 189.738281 316.6875 L 188.84375 323.859375 L 186.136719 327.117188 L 183.136719 324.070312 L 182.882812 316.636719 L 189.738281 316.6875 " fill-opacity="1" fill-rule="nonzero"/><path fill="#f49d64" d="M 171.222656 316.382812 L 170.726562 323.742188 L 167.828125 328.726562 L 164.886719 324.046875 L 164.367188 316.519531 L 171.222656 316.382812 " fill-opacity="1" fill-rule="nonzero"/><path fill="#20158a" d="M 188.84375 323.96875 C 189.871094 324.886719 191.554688 326.300781 192.945312 327.453125 C 194.078125 328.394531 193.464844 329.988281 191.871094 330.21875 C 191.015625 330.34375 190.183594 330.4375 189.628906 330.460938 C 184.746094 330.65625 181.683594 330.753906 181.707031 329.09375 C 181.734375 327.183594 183.003906 323.664062 183.003906 323.664062 C 185.882812 325.34375 188.84375 323.96875 188.84375 323.96875 " fill-opacity="1" fill-rule="nonzero"/><path fill="#20158a" d="M 164.886719 324.046875 C 163.859375 324.96875 162.175781 326.382812 160.785156 327.535156 C 159.652344 328.472656 160.265625 330.066406 161.859375 330.300781 C 162.714844 330.425781 163.546875 330.515625 164.101562 330.539062 C 168.984375 330.734375 172.046875 330.835938 172.023438 329.175781 C 171.996094 327.265625 170.726562 323.742188 170.726562 323.742188 C 167.847656 325.421875 164.886719 324.046875 164.886719 324.046875 " fill-opacity="1" fill-rule="nonzero"/><path fill="#f49d64" d="M 215.097656 248.523438 L 207.628906 248.523438 L 208.40625 243.769531 C 214.445312 244.101562 215.097656 248.523438 215.097656 248.523438 " fill-opacity="1" fill-rule="nonzero"/><path fill="#f49d64" d="M 169.097656 192.496094 C 170.214844 186.375 175.695312 182.25 181.335938 183.28125 C 186.976562 184.3125 190.640625 190.109375 189.523438 196.230469 C 188.675781 200.859375 187.839844 206.1875 183.488281 205.535156 L 182.671875 213.507812 L 168.816406 211.929688 L 172.769531 203.304688 C 169.863281 200.855469 168.320312 196.757812 169.097656 192.496094 " fill-opacity="1" fill-rule="nonzero"/><path fill="#1bb26a" d="M 212.441406 248.523438 L 201.273438 248.523438 C 197.035156 249.117188 192.183594 233.527344 192.183594 233.527344 L 191.640625 243.867188 C 191.632812 245.179688 192.316406 248.257812 193.164062 251.625 C 194.078125 255.179688 195.183594 259.054688 195.886719 261.472656 C 196.3125 262.957031 195.9375 264.574219 194.832031 265.652344 C 194.816406 265.683594 194.78125 265.71875 194.746094 265.753906 C 190.714844 269.464844 185.957031 271.585938 178.621094 271.597656 C 169.429688 271.597656 164.386719 269.882812 161.761719 268.414062 C 160.179688 267.515625 159.300781 265.765625 159.578125 263.980469 C 160.375 258.789062 161.675781 246.84375 161.613281 238.792969 C 161.59375 236.625 161.46875 234.746094 161.214844 233.339844 L 160.390625 228.730469 L 179.996094 207.621094 L 180.472656 207.113281 C 180.472656 207.113281 187.285156 206.359375 191.261719 210.332031 C 195.601562 214.675781 202.386719 232.136719 204.871094 238.796875 C 205.382812 240.160156 206.296875 241.347656 207.53125 242.121094 C 210.589844 244.03125 212.441406 248.523438 212.441406 248.523438 " fill-opacity="1" fill-rule="nonzero"/><path fill="#20158a" d="M 160.390625 202.535156 C 162.378906 200.289062 164.710938 174.886719 183.394531 182.300781 C 190.234375 185.019531 189.863281 190.890625 185.476562 197.5625 C 177.082031 210.347656 186.230469 212.925781 182.070312 223.082031 C 177.847656 233.378906 164.023438 236 155.394531 228.976562 C 152.367188 226.515625 150.171875 223.261719 150.019531 218.984375 C 149.84375 213.933594 153.433594 210.414062 160.390625 202.535156 " fill-opacity="1" fill-rule="nonzero"/><path fill="#009250" d="M 178.839844 229.074219 C 175.984375 236.066406 168.003906 239.503906 160.917969 238.792969 C 160.898438 236.628906 161.464844 234.742188 161.214844 233.339844 L 160.390625 228.730469 L 179.996094 207.621094 C 175.800781 217.027344 182.523438 220.085938 178.839844 229.074219 " fill-opacity="1" fill-rule="nonzero"/><path fill="#0031a4" d="M 157.988281 224.535156 C 156.996094 218.898438 157.222656 212.726562 163.785156 202.8125 C 165.0625 200.878906 166.355469 187.597656 174.089844 181.089844 C 162.917969 183.136719 162.433594 201.234375 160.390625 202.535156 C 150.875 208.617188 149.84375 213.933594 150.019531 218.984375 C 150.171875 223.261719 152.367188 226.515625 155.394531 228.976562 C 157.457031 230.65625 159.816406 231.765625 162.265625 232.371094 C 160.132812 230.339844 158.558594 227.785156 157.988281 224.535156 " fill-opacity="1" fill-rule="nonzero"/><path fill="#20158a" d="M 182.070312 223.082031 C 186.230469 212.925781 177.082031 210.347656 185.476562 197.5625 C 189.863281 190.890625 190.234375 185.019531 183.394531 182.300781 C 179.8125 180.882812 176.738281 180.605469 174.089844 181.089844 C 166.355469 187.597656 165.0625 200.878906 163.785156 202.8125 C 157.222656 212.726562 156.996094 218.898438 157.988281 224.535156 C 158.558594 227.785156 160.132812 230.339844 162.265625 232.371094 C 170.082031 234.292969 178.859375 230.917969 182.070312 223.082031 " fill-opacity="1" fill-rule="nonzero"/><path fill="#f49d64" d="M 181.894531 197.027344 C 181.632812 198.457031 182.582031 199.828125 184.011719 200.089844 C 185.441406 200.351562 186.8125 199.40625 187.074219 197.972656 C 187.335938 196.542969 186.386719 195.171875 184.957031 194.910156 C 183.527344 194.648438 182.15625 195.59375 181.894531 197.027344 " fill-opacity="1" fill-rule="nonzero"/><path fill="#fa4a56" d="M 194.203125 291.464844 L 181.101562 291.464844 C 181.128906 291.832031 181.148438 292.191406 181.148438 292.542969 C 181.148438 298.574219 181.875 319.269531 181.875 319.269531 C 181.875 319.269531 187.558594 320.902344 190.90625 318.992188 C 190.90625 318.992188 194.417969 297.4375 194.207031 291.574219 C 194.207031 291.539062 194.203125 291.5 194.203125 291.464844 " fill-opacity="1" fill-rule="nonzero"/><path fill="#fa4a56" d="M 163.046875 318.992188 C 166.390625 320.902344 172.074219 319.269531 172.074219 319.269531 C 172.074219 319.269531 174.707031 297.824219 174.707031 291.777344 C 174.707031 291.675781 174.710938 291.570312 174.714844 291.464844 L 162.152344 291.464844 C 161.953125 297.414062 163.046875 318.992188 163.046875 318.992188 " fill-opacity="1" fill-rule="nonzero"/><path fill="#de2d47" d="M 192.703125 267.433594 C 192.511719 266.539062 192.300781 265.800781 192.050781 265.269531 C 191.972656 265.101562 191.898438 264.953125 191.808594 264.820312 C 190.054688 262.136719 176.996094 263.238281 176.996094 263.238281 C 176.996094 263.238281 164.054688 262.199219 162.164062 264.820312 C 162.089844 264.929688 162.015625 265.050781 161.941406 265.195312 C 161.378906 266.394531 161.167969 268.664062 161.167969 271.433594 C 161.167969 278.035156 162.3125 287.414062 162.164062 291.402344 C 162.164062 291.421875 162.164062 291.449219 162.164062 291.464844 L 174.726562 291.464844 C 174.792969 286.09375 176.617188 279.230469 176.996094 277.867188 C 177.34375 279.167969 180.6875 286.128906 181.113281 291.464844 L 194.214844 291.464844 C 194.042969 286.480469 193.972656 273.457031 192.703125 267.433594 " fill-opacity="1" fill-rule="nonzero"/><path fill="#009250" d="M 193.003906 267.195312 L 188.003906 264.050781 C 185.96875 262.773438 184.847656 260.617188 184.847656 258.363281 C 184.847656 257.277344 185.113281 256.183594 185.679688 255.160156 C 187.015625 252.699219 186.667969 249.640625 184.8125 247.542969 L 182.765625 245.226562 C 181.101562 243.3125 180.636719 240.613281 181.597656 238.265625 L 187.671875 224.828125 L 192.183594 233.527344 L 191.640625 243.867188 C 191.632812 245.179688 192.316406 248.257812 193.164062 251.625 C 193.109375 255.332031 193.195312 260.023438 194.0625 263.011719 C 194.496094 264.496094 194.113281 266.113281 193.003906 267.195312 " fill-opacity="1" fill-rule="nonzero"/><path fill="#9fafea" d="M 149.644531 330.644531 L 153.886719 330.644531 L 167.859375 282.546875 L 163.617188 282.546875 L 149.644531 330.644531 " fill-opacity="1" fill-rule="nonzero"/><path fill="#9fafea" d="M 206.699219 330.644531 L 202.457031 330.644531 L 188.484375 282.546875 L 192.726562 282.546875 L 206.699219 330.644531 " fill-opacity="1" fill-rule="nonzero"/><path fill="#9fafea" d="M 202.757812 281.414062 L 154.316406 281.414062 L 154.316406 288.839844 L 202.757812 288.839844 L 202.757812 281.414062 " fill-opacity="1" fill-rule="nonzero"/><path fill="#c8d1f3" d="M 193.574219 244.183594 L 162.609375 244.183594 C 157.910156 244.183594 154.304688 248.363281 154.992188 253.015625 L 159.199219 281.414062 L 198.199219 281.414062 L 201.230469 252.695312 C 201.710938 248.144531 198.144531 244.183594 193.574219 244.183594 " fill-opacity="1" fill-rule="nonzero"/><path fill="#6875c8" d="M 123.582031 248.523438 L 123.582031 246.773438 L 110.511719 246.773438 L 110.511719 248.523438 L 123.582031 248.523438 " fill-opacity="1" fill-rule="nonzero"/><path fill="#6875c8" d="M 254.550781 248.523438 L 254.550781 246.773438 L 246.4375 246.773438 L 246.4375 248.523438 L 254.550781 248.523438 " fill-opacity="1" fill-rule="nonzero"/><path fill="#f49d64" d="M 101.90625 311.148438 L 99.945312 320.890625 L 95.695312 325.773438 L 92.714844 320.886719 L 93.8125 310.023438 L 101.90625 311.148438 " fill-opacity="1" fill-rule="nonzero"/><g clip-path="url(#bfceca7244)"><path fill="#434bef" d="M 99.945312 320.890625 C 104.925781 328.496094 114.097656 329.378906 113.679688 331.804688 C 113.371094 333.617188 109.289062 333.507812 107.304688 333.269531 C 103.261719 332.777344 96.878906 331.582031 93.125 330.851562 C 91.171875 330.472656 89.9375 328.542969 90.398438 326.605469 C 91.167969 323.355469 92.890625 320.214844 92.890625 320.214844 C 95.976562 323.347656 99.945312 320.890625 99.945312 320.890625 " fill-opacity="1" fill-rule="nonzero"/></g><path fill="#fec95c" d="M 103.019531 314.515625 C 101.433594 315.277344 99.863281 315.449219 98.449219 315.324219 C 97.71875 315.261719 97.03125 315.121094 96.394531 314.933594 C 94.210938 314.292969 92.734375 313.164062 92.734375 313.164062 L 96.710938 281.738281 L 70.695312 281.46875 C 69.296875 281.453125 67.945312 281.214844 66.679688 280.796875 C 61.476562 279.0625 57.671875 274.179688 57.855469 268.457031 C 57.910156 266.722656 58.304688 265.0625 59.101562 263.648438 L 61.425781 259.527344 C 61.425781 259.527344 75.390625 260.417969 88.644531 262.886719 C 100.152344 265.027344 111.121094 268.359375 111.921875 273.304688 C 113.71875 284.359375 103.019531 314.515625 103.019531 314.515625 " fill-opacity="1" fill-rule="nonzero"/><path fill="#ff9e22" d="M 88.644531 262.886719 C 88.644531 263.355469 88.582031 263.8125 88.441406 264.265625 C 86.164062 272.121094 80.46875 272.902344 73.097656 276.464844 C 72.683594 276.664062 72.285156 276.867188 71.910156 277.074219 C 65.757812 280.410156 58.035156 276.167969 57.851562 269.167969 C 57.847656 268.933594 57.847656 268.695312 57.855469 268.457031 C 57.910156 266.722656 58.304688 265.0625 59.101562 263.648438 L 61.425781 259.527344 C 61.425781 259.527344 75.390625 260.417969 88.644531 262.886719 " fill-opacity="1" fill-rule="nonzero"/><path fill="#ff9e22" d="M 98.449219 315.324219 C 97.71875 315.261719 97.03125 315.121094 96.394531 314.933594 C 100.546875 296.507812 103.140625 277.851562 101.90625 275.78125 C 100.296875 273.789062 80.265625 271.089844 60.996094 270.671875 L 61.035156 268.582031 C 61.140625 268.582031 71.054688 268.851562 81.300781 269.917969 C 101.742188 272.042969 103.234375 273.613281 103.789062 274.503906 C 106.027344 278.082031 100.484375 306.269531 98.449219 315.324219 " fill-opacity="1" fill-rule="nonzero"/><path fill="#0031a4" d="M 65.125 242.679688 L 81.566406 250.113281 L 77.359375 258.171875 C 77.359375 258.171875 54.039062 253.105469 51.71875 248.789062 C 49.398438 244.472656 60.714844 218.300781 60.714844 218.300781 L 74.648438 231.738281 C 70.289062 236.8125 65.125 242.679688 65.125 242.679688 " fill-opacity="1" fill-rule="nonzero"/><path fill="#fcfdfe" d="M 131.214844 202.738281 L 127.253906 220.121094 L 109.867188 220.121094 L 113.828125 202.738281 L 131.214844 202.738281 " fill-opacity="1" fill-rule="nonzero"/><path fill="#f49d64" d="M 75.996094 195.191406 C 78.707031 188.539062 85.871094 185.171875 92.003906 187.675781 C 98.132812 190.171875 100.90625 197.59375 98.195312 204.246094 C 96.148438 209.277344 95.21875 216.023438 86.777344 212.578125 L 80.464844 220.914062 L 71.085938 217.085938 L 77.59375 208.277344 C 74.882812 204.816406 74.109375 199.820312 75.996094 195.191406 " fill-opacity="1" fill-rule="nonzero"/><path fill="#5669ef" d="M 88.5 260.625 C 89.515625 265.261719 84.964844 268.449219 79.132812 270.335938 C 71.984375 272.660156 62.917969 273.019531 59.84375 271.707031 C 52.351562 268.488281 60.675781 260.085938 58.425781 230.414062 C 58.304688 228.859375 58.160156 227.253906 57.988281 225.566406 C 57.800781 223.730469 55.429688 214.605469 62.207031 211.820312 C 63.039062 211.480469 63.828125 211.257812 64.515625 211.199219 L 69.683594 210.78125 C 73.933594 210.457031 78.195312 211.085938 82.109375 212.597656 C 84.265625 213.433594 86.308594 214.546875 88.226562 215.910156 C 90.753906 217.710938 93.597656 224.246094 95.921875 230.925781 L 86.59375 239.464844 C 86.417969 239.738281 86.261719 240.527344 86.15625 241.722656 C 86.109375 242.1875 86.078125 242.71875 86.050781 243.308594 C 85.824219 247.847656 86.949219 253.523438 88.5 260.625 " fill-opacity="1" fill-rule="nonzero"/><path fill="#434bef" d="M 79.132812 270.335938 C 79.207031 270.167969 79.285156 270.007812 79.375 269.84375 C 81.171875 266.359375 80.976562 262.175781 78.367188 259.21875 L 75.492188 255.980469 C 75.472656 255.96875 75.453125 255.925781 75.414062 255.910156 C 72.539062 252.515625 74.566406 246.703125 76.019531 244.152344 C 77.25 241.953125 81.441406 237.484375 81.441406 237.484375 L 86.15625 241.722656 C 86.109375 242.1875 86.078125 242.71875 86.050781 243.308594 C 85.824219 247.847656 86.949219 253.523438 88.5 260.625 C 89.515625 265.261719 84.964844 268.449219 79.132812 270.335938 " fill-opacity="1" fill-rule="nonzero"/><path fill="#fc8f8b" d="M 55.941406 198.777344 C 55.960938 198.773438 55.976562 198.769531 55.996094 198.765625 C 59.1875 198.195312 62.203125 196.917969 64.617188 194.757812 C 68.792969 191.015625 74.109375 187.78125 79.882812 185.648438 C 83.691406 184.242188 89.164062 184.132812 92.714844 185.011719 C 94.351562 185.414062 96.019531 185.570312 97.699219 185.652344 C 99.402344 185.734375 101.722656 186.320312 103.285156 188.625 C 103.445312 188.863281 103.566406 189.109375 103.664062 189.355469 C 102.328125 189.261719 101 189.117188 99.695312 188.796875 C 96.144531 187.917969 90.675781 188.027344 86.863281 189.433594 C 81.09375 191.5625 75.777344 194.800781 71.597656 198.539062 C 69.183594 200.703125 66.167969 201.980469 62.976562 202.550781 C 62.960938 202.554688 62.941406 202.558594 62.925781 202.558594 C 54.539062 204.082031 49.371094 212.671875 51.484375 220.957031 C 51.84375 222.371094 52.503906 223.609375 53.355469 224.664062 C 49.28125 224.183594 45.589844 221.441406 44.5 217.171875 C 42.386719 208.886719 47.558594 200.296875 55.941406 198.777344 " fill-opacity="1" fill-rule="nonzero"/><path fill="#fa4a56" d="M 51.484375 220.957031 C 49.371094 212.671875 54.539062 204.082031 62.925781 202.558594 C 62.941406 202.558594 62.960938 202.554688 62.976562 202.550781 C 66.167969 201.980469 69.183594 200.703125 71.597656 198.539062 C 75.777344 194.800781 81.09375 191.5625 86.863281 189.433594 C 90.675781 188.027344 96.144531 187.917969 99.695312 188.796875 C 101 189.117188 102.328125 189.261719 103.664062 189.355469 C 105.230469 193.304688 99.210938 198.277344 99.210938 198.277344 C 90.804688 194.847656 89.3125 200.988281 87.082031 206.464844 C 85.367188 210.671875 75.207031 220.613281 66.6875 221.488281 C 64.292969 221.734375 61.933594 222.246094 59.820312 223.402344 C 59.785156 223.425781 59.746094 223.445312 59.707031 223.464844 C 57.695312 224.558594 55.472656 224.914062 53.355469 224.664062 C 52.503906 223.609375 51.84375 222.371094 51.484375 220.957031 " fill-opacity="1" fill-rule="nonzero"/><path fill="#434bef" d="M 82.109375 212.597656 C 78.949219 217.578125 73.730469 223.292969 68.375 225.015625 C 66.085938 225.757812 63.871094 226.761719 62.054688 228.332031 C 62.019531 228.371094 62 228.386719 61.960938 228.425781 C 60.882812 229.335938 59.691406 229.996094 58.425781 230.414062 C 58.3125 228.859375 58.15625 227.253906 57.988281 225.566406 C 57.796875 223.730469 55.433594 214.605469 62.207031 211.820312 C 63.039062 211.480469 63.835938 211.253906 64.515625 211.199219 L 69.683594 210.78125 C 73.9375 210.460938 78.195312 211.082031 82.109375 212.597656 " fill-opacity="1" fill-rule="nonzero"/><path fill="#fa4a56" d="M 51.484375 220.957031 C 49.371094 212.671875 54.539062 204.082031 62.925781 202.558594 C 62.941406 202.558594 62.960938 202.554688 62.976562 202.550781 C 66.167969 201.980469 69.183594 200.703125 71.597656 198.539062 C 75.777344 194.800781 81.09375 191.5625 86.863281 189.433594 C 90.675781 188.027344 96.144531 187.917969 99.695312 188.796875 C 101 189.117188 102.328125 189.261719 103.664062 189.355469 C 105.230469 193.304688 99.210938 198.277344 99.210938 198.277344 C 90.804688 194.847656 89.3125 200.988281 87.082031 206.464844 C 85.367188 210.671875 75.207031 220.613281 66.6875 221.488281 C 64.292969 221.734375 61.933594 222.246094 59.820312 223.402344 C 59.785156 223.425781 59.746094 223.445312 59.707031 223.464844 C 57.695312 224.558594 55.472656 224.914062 53.355469 224.664062 C 52.503906 223.609375 51.84375 222.371094 51.484375 220.957031 " fill-opacity="1" fill-rule="nonzero"/><path fill="#f49d64" d="M 84.90625 203.75 C 84.273438 205.304688 85.019531 207.082031 86.574219 207.714844 C 88.125 208.351562 89.902344 207.601562 90.535156 206.046875 C 91.167969 204.492188 90.421875 202.71875 88.867188 202.082031 C 87.3125 201.449219 85.539062 202.195312 84.90625 203.75 " fill-opacity="1" fill-rule="nonzero"/><path fill="#f49d64" d="M 128.023438 216.882812 C 127.042969 217.484375 126.023438 219.851562 124.390625 220.144531 C 124.0625 220.203125 123.558594 220.132812 123.230469 220.121094 C 123.921875 218.59375 124.832031 216.417969 124.058594 216.132812 C 122.480469 215.546875 119.554688 221.101562 119.554688 221.101562 C 118.6875 222.453125 118.332031 224.222656 118.332031 224.222656 C 117.585938 225.359375 103.664062 236.226562 103.664062 236.226562 L 109.707031 241.664062 L 118.710938 231.019531 C 119.308594 230.425781 120.042969 229.988281 120.859375 229.734375 C 122.039062 229.382812 123.289062 229.019531 124.417969 228.476562 C 124.417969 228.492188 129.714844 225.410156 130.25 222.667969 C 130.417969 221.800781 130.542969 221.171875 130.25 219.816406 C 129.875 218.09375 128.023438 216.882812 128.023438 216.882812 " fill-opacity="1" fill-rule="nonzero"/><path fill="#5669ef" d="M 98.449219 238.453125 L 112.539062 227.617188 C 112.539062 227.617188 118.386719 228.28125 118.386719 233.957031 C 118.386719 233.957031 101.625 252.613281 96.730469 252.4375 C 92.769531 252.300781 83.417969 240.226562 81.441406 237.484375 L 95.925781 230.917969 C 98.261719 237.597656 98.449219 238.453125 98.449219 238.453125 " fill-opacity="1" fill-rule="nonzero"/><path fill="#1bb26a" d="M 242.816406 223.335938 C 243.535156 222.4375 244.003906 221.363281 244.054688 220.230469 C 244.136719 218.28125 242.699219 216.253906 240.851562 214.988281 C 242.777344 213.472656 242.65625 210.480469 241.167969 208.515625 C 239.664062 206.535156 236.382812 205.90625 234.402344 207.410156 C 232.421875 208.914062 232.277344 212.886719 233.78125 214.867188 C 233.863281 214.976562 233.976562 215.050781 234.070312 215.148438 C 232.695312 216.464844 231.777344 218.480469 231.699219 220.308594 C 231.640625 221.613281 232.144531 222.773438 232.972656 223.6875 C 231.535156 225.347656 230.597656 227.613281 230.507812 229.691406 C 230.335938 233.636719 234.15625 236.566406 238.097656 236.734375 C 242.039062 236.910156 246.132812 233.53125 246.304688 229.585938 C 246.40625 227.3125 244.878906 224.957031 242.816406 223.335938 " fill-opacity="1" fill-rule="nonzero"/><path fill="#00a45c" d="M 238.367188 230.167969 C 238.324219 228.871094 238.273438 227.578125 238.222656 226.277344 C 238.199219 225.742188 238.183594 225.203125 238.160156 224.65625 C 238.15625 224.550781 238.160156 224.433594 238.152344 224.324219 C 238.144531 224.226562 238.148438 224.121094 238.140625 224.027344 C 239.5625 221.960938 240.9375 219.855469 242.210938 217.652344 C 241.34375 218.4375 239.730469 220.566406 238.085938 222.824219 C 238.015625 220.964844 237.953125 219.121094 237.855469 217.261719 C 237.839844 216.820312 237.808594 216.378906 237.78125 215.9375 C 237.804688 215.90625 237.832031 215.882812 237.84375 215.847656 C 238.761719 214.472656 239.628906 213.074219 240.464844 211.632812 C 239.84375 212.1875 238.839844 213.441406 237.730469 214.925781 C 237.609375 213.101562 237.4375 211.277344 237.195312 209.445312 C 237.027344 210.378906 237 212.328125 237.035156 214.527344 C 236.058594 212.964844 235.175781 211.652344 234.621094 211.046875 C 235.382812 212.671875 236.203125 214.265625 237.0625 215.824219 C 237.078125 216.21875 237.101562 216.585938 237.109375 216.957031 C 237.191406 219.394531 237.3125 221.816406 237.375 223.328125 C 235.824219 220.738281 234.238281 218.1875 233.386719 217.269531 C 234.519531 219.671875 235.757812 221.984375 237.0625 224.265625 C 237.183594 224.484375 237.316406 224.703125 237.4375 224.921875 C 237.449219 224.960938 237.445312 224.996094 237.445312 225.03125 C 237.539062 227.261719 237.589844 229.5 237.683594 231.738281 C 237.640625 231.675781 237.597656 231.617188 237.550781 231.550781 C 237.476562 231.472656 237.425781 231.390625 237.363281 231.3125 C 235.578125 228.878906 233.761719 226.484375 232.828125 225.648438 C 234.175781 227.9375 235.628906 230.125 237.136719 232.273438 C 237.277344 232.480469 237.429688 232.6875 237.570312 232.894531 C 237.582031 232.917969 237.597656 232.929688 237.621094 232.949219 C 237.683594 233.039062 237.71875 233.125 237.769531 233.210938 C 237.875 235.195312 238.023438 237.183594 238.300781 239.167969 C 238.472656 236.535156 238.464844 234.023438 238.40625 231.535156 C 239.550781 229.476562 240.652344 227.386719 241.648438 225.214844 C 240.921875 226.003906 239.671875 227.988281 238.367188 230.167969 " fill-opacity="1" fill-rule="nonzero"/><path fill="#ff9134" d="M 248.199219 232.984375 L 248.199219 234.90625 L 246.621094 234.90625 L 246.136719 236.816406 L 243.148438 248.523438 L 233.617188 248.523438 L 230.484375 236.816406 L 229.980469 234.90625 L 228.390625 234.90625 L 228.390625 232.984375 L 248.199219 232.984375 " fill-opacity="1" fill-rule="nonzero"/><path fill="#ff7344" d="M 246.621094 234.90625 L 246.136719 236.816406 L 230.484375 236.816406 L 229.980469 234.90625 L 246.621094 234.90625 " fill-opacity="1" fill-rule="nonzero"/></svg>