<svg xmlns="http://www.w3.org/2000/svg" xmlns:xlink="http://www.w3.org/1999/xlink" width="500" zoomAndPan="magnify" viewBox="0 0 375 374.999991" height="500" preserveAspectRatio="xMidYMid meet" version="1.0"><rect x="-37.5" width="450" fill="#ffffff" y="-37.499999" height="449.999989" fill-opacity="1"/><rect x="-37.5" width="450" fill="#ffffff" y="-37.499999" height="449.999989" fill-opacity="1"/><rect x="-37.5" width="450" fill="#ffffff" y="-37.499999" height="449.999989" fill-opacity="1"/><path fill="#38b6ff" d="M 265.707031 1.105469 C 260.878906 1.105469 256.425781 3.085938 253.121094 6.707031 L 125.320312 123.535156 C 123.109375 125.542969 122.933594 128.972656 124.941406 131.1875 C 126.007812 132.367188 127.484375 132.960938 128.957031 132.960938 C 130.253906 132.960938 131.554688 132.492188 132.59375 131.558594 L 260.625 14.515625 C 260.765625 14.386719 260.902344 14.246094 261.027344 14.105469 C 262.617188 12.296875 264.453125 11.917969 265.707031 11.917969 C 268.890625 11.917969 272.175781 14.3125 272.175781 18.320312 L 272.175781 103.09375 L 189.261719 165.777344 L 189.292969 165.8125 L 184.738281 169.257812 C 182.359375 171.058594 181.890625 174.449219 183.691406 176.832031 C 184.757812 178.242188 186.375 178.980469 188.015625 178.980469 C 189.152344 178.980469 190.300781 178.621094 191.28125 177.878906 L 272.1875 116.664062 L 272.207031 258.128906 L 54.117188 93.296875 C 46.027344 87.371094 34.300781 87.59375 25.71875 93.71875 C 21.222656 96.933594 10.085938 107.265625 9.136719 108.167969 C 3.773438 112.464844 0.5625 118.867188 0.324219 125.734375 C 0.078125 132.605469 2.835938 139.203125 7.902344 143.878906 L 253.121094 368.078125 C 256.425781 371.699219 260.886719 373.6875 265.707031 373.6875 C 269.246094 373.6875 272.792969 372.511719 275.78125 370.433594 L 352.996094 334.953125 C 366.15625 330.414062 375 318.082031 375 304.273438 L 375 70.511719 C 375 56.703125 366.160156 44.371094 353.492188 40.03125 L 275.78125 4.351562 C 272.796875 2.273438 269.246094 1.105469 265.707031 1.105469 Z M 283.007812 19.570312 L 349.464844 50.058594 C 358.265625 53.097656 364.175781 61.316406 364.175781 70.511719 L 364.175781 304.273438 C 364.175781 313.46875 358.269531 321.6875 348.980469 324.914062 L 283.007812 355.214844 L 283.007812 268.996094 L 282.988281 105.851562 C 282.988281 105.832031 283.007812 105.8125 283.007812 105.789062 Z M 345.238281 65.882812 C 343.746094 65.882812 342.53125 67.09375 342.53125 68.585938 L 342.53125 203.867188 C 342.53125 205.363281 343.746094 206.574219 345.238281 206.574219 C 346.730469 206.574219 347.945312 205.363281 347.945312 203.867188 L 347.945312 68.585938 C 347.945312 67.09375 346.730469 65.882812 345.238281 65.882812 Z M 40.527344 99.691406 C 43.144531 99.691406 45.644531 100.492188 47.660156 101.976562 L 272.1875 271.6875 L 272.1875 356.460938 C 272.1875 360.464844 268.898438 362.867188 265.71875 362.867188 C 264.460938 362.867188 262.625 362.488281 261.035156 360.679688 C 260.90625 360.53125 260.769531 360.402344 260.625 360.265625 L 15.226562 135.910156 C 12.5 133.394531 11.011719 129.824219 11.136719 126.113281 C 11.265625 122.394531 13.003906 118.945312 16.207031 116.359375 C 19.476562 113.3125 28.679688 104.898438 32.007812 102.523438 C 34.574219 100.691406 37.601562 99.691406 40.527344 99.691406 Z M 46.859375 197.527344 C 45.476562 197.464844 44.0625 197.941406 42.957031 198.953125 L 37.125 204.28125 L 37.070312 204.238281 L 7.890625 230.914062 C 2.84375 235.570312 0.078125 242.183594 0.324219 249.050781 C 0.5625 255.921875 3.777344 262.324219 8.84375 266.363281 C 10.09375 267.53125 21.234375 277.855469 25.730469 281.074219 C 30.121094 284.195312 35.363281 285.914062 40.527344 285.914062 C 45.46875 285.914062 50.167969 284.398438 54.183594 281.453125 L 97.957031 248.4375 C 100.339844 246.636719 100.808594 243.242188 99.003906 240.859375 C 97.191406 238.46875 93.808594 237.996094 91.425781 239.804688 L 47.726562 272.757812 C 43.316406 275.988281 36.875 275.722656 32.019531 272.261719 C 28.691406 269.882812 19.480469 261.460938 15.902344 258.160156 C 13 255.835938 11.269531 252.378906 11.136719 248.660156 C 11.011719 244.949219 12.492188 241.382812 15.203125 238.882812 L 50.261719 206.933594 C 52.464844 204.921875 52.632812 201.496094 50.609375 199.292969 C 49.601562 198.183594 48.242188 197.589844 46.859375 197.527344 Z M 345.238281 217.398438 C 343.746094 217.398438 342.53125 218.609375 342.53125 220.101562 L 342.53125 241.746094 C 342.53125 243.242188 343.746094 244.453125 345.238281 244.453125 C 346.730469 244.453125 347.945312 243.242188 347.945312 241.746094 L 347.945312 220.101562 C 347.945312 218.609375 346.730469 217.398438 345.238281 217.398438 Z M 345.238281 249.863281 C 343.746094 249.863281 342.53125 251.078125 342.53125 252.570312 L 342.53125 257.980469 C 342.53125 259.476562 343.746094 260.6875 345.238281 260.6875 C 346.730469 260.6875 347.945312 259.476562 347.945312 257.980469 L 347.945312 252.570312 C 347.945312 251.078125 346.730469 249.863281 345.238281 249.863281 Z M 345.238281 271.507812 C 343.746094 271.507812 342.53125 272.722656 342.53125 274.214844 L 342.53125 305.328125 C 342.53125 306.824219 343.746094 308.035156 345.238281 308.035156 C 346.730469 308.035156 347.945312 306.824219 347.945312 305.328125 L 347.945312 274.214844 C 347.945312 272.722656 346.730469 271.507812 345.238281 271.507812 Z M 345.238281 271.507812 " fill-opacity="1" fill-rule="nonzero"/></svg>