<svg xmlns="http://www.w3.org/2000/svg" xmlns:xlink="http://www.w3.org/1999/xlink" width="500" zoomAndPan="magnify" viewBox="0 0 375 374.999991" height="500" preserveAspectRatio="xMidYMid meet" version="1.0"><defs><clipPath id="e0cb784200"><path d="M 1.664062 0 L 375 0 L 375 375 L 1.664062 375 Z M 1.664062 0 " clip-rule="nonzero"/></clipPath></defs><rect x="-37.5" width="450" fill="#ffffff" y="-37.499999" height="449.999989" fill-opacity="1"/><rect x="-37.5" width="450" fill="#ffffff" y="-37.499999" height="449.999989" fill-opacity="1"/><rect x="-37.5" width="450" fill="#ffffff" y="-37.499999" height="449.999989" fill-opacity="1"/><g clip-path="url(#e0cb784200)"><path fill="#007acc" d="M 282.914062 0 L 282.914062 322.265625 L 1.664062 280.3125 L 282.914062 375 L 376.664062 335.976562 L 376.664062 38.964844 Z M 184.476562 54.84375 L 98.34375 140.039062 L 46.488281 100.957031 L 25.101562 108.105469 L 77.835938 160.253906 L 25.101562 212.402344 L 46.488281 219.550781 L 98.34375 180.46875 L 184.476562 265.605469 L 236.039062 243.75 L 236.039062 76.757812 Z M 184.476562 115.605469 L 184.476562 205.078125 L 125.296875 160.253906 Z M 184.476562 115.605469 " fill-opacity="1" fill-rule="nonzero"/></g></svg>